<?xml version="1.0" encoding="UTF-8"?>
<!DOCTYPE svg PUBLIC "-//W3C//DTD SVG 1.1//EN" "http://www.w3.org/Graphics/SVG/1.1/DTD/svg11.dtd">
<!-- Creator: CorelDRAW 2019 (64-Bit) -->
<svg xmlns="http://www.w3.org/2000/svg" xml:space="preserve" width="57.1714mm" height="103.111mm" version="1.1" style="shape-rendering:geometricPrecision; text-rendering:geometricPrecision; image-rendering:optimizeQuality; fill-rule:evenodd; clip-rule:evenodd"
viewBox="0 0 1825510 3292374"
 xmlns:xlink="http://www.w3.org/1999/xlink"
 xmlns:xodm="http://www.corel.com/coreldraw/odm/2003">
 <defs>
  <style type="text/css">
   <![CDATA[
    .fil0 {fill:#2AA199}
   ]]>
  </style>
 </defs>
 <g id="Слой_x0020_1">
  <metadata id="CorelCorpID_0Corel-Layer"/>
  <g id="_2659873744432">
   <path class="fil0" d="M125030 9388l-2730 1482 -8136 3653 -7338 1482 -7906 4614 -13829 6252 -3532 4253 -12772 6616 -3953 4780 -5435 5435 -5961 4905 -4905 5965 -5961 4905 -5435 5431 -3953 6386 -6916 10869 -3589 5435 -1482 6488 -3953 4378 -1482 6491 -4314 9809 -1482 5435 -3953 10869 -1482 10866 -4483 27170 0 10869 5435 32601 530 5435 3953 10869 1482 13570 4314 1673 1482 6491 3589 5435 1482 5431 4317 4378 6552 11926 14819 16301c28753,36714 942320,944085 1008457,1010220 39862,39862 323884,317185 335181,340072l-15774 18443 -7079 7082 -42883 41462 -6022 7443 -85296 85296 -7079 7079 -3787 3787 -7082 7079 -37448 36027 -6386 6386 -36027 37448 -7079 7079 -42883 41462 -11457 12878 -36391 36391 -7079 7079 -47257 47260 -7082 7079 -79858 79861 -7082 7082 -3787 3784 -7082 7082 -32010 30596 -11821 11817 -36027 37448 -7082 7079 -47257 47260 -7082 7079 -90727 90730 -7079 7079 -37448 36027 -6386 6386 -36027 37448 -7082 7079 -42879 41462 -6025 7443 -85293 85296 -7079 7079 -3790 3787 -7079 7082 -37448 36027 -6386 6386 -46896 48314 -7079 7082 -32014 30593 -6386 6386 -41462 42879 -7079 7082 -47257 47257 -7082 7082 -42879 41462 -6386 6386 -41462 42879 -7082 7079 -26352 27866 -6613 9116 -4780 3528 -5725 13829 -3953 4378 -7277 21735 -3953 10869 -1482 10866 -4483 27170 0 10866 5435 32604 0 5435 5435 16301 530 8139 3953 2730 1478 5431 3953 5435 1482 5435 4317 4378 6252 13829 9688 8963 28118 28121 10869 9024 6491 1482 4378 4317 5431 1478 5435 3956 5435 1478 8963 4780 7338 955 10869 4180 10866 1252 27170 4183 10869 0 21735 -4183 16301 -1779 10869 -3956 5435 -1478 20678 -9748 11923 -6552 5435 -3956c9991,-4895 3982,1149 13570,-6913l1496505 -1499210 6916 -10866 4250 -3528 6916 -18207 3653 -5435 530 -5435c0,-7341 -1555,-6290 4905,-2730l527 -8136 4908 -16301 1478 -10869 300 -48905 -1779 -16301 -4908 -10869 -888 -10866 -3592 -5435 -1482 -5435 -3653 -5435 -1482 -7338 -4253 -827 -1478 -5435 -9388 -13570 -1482 -5431 -5431 -4908 -4908 -5961 -5435 -5435 -4480 -6386 -6386 -4480 -4483 -6386 -6386 -4483 -5010 -5856 -6386 -4483 -4480 -6386 -6386 -4480 -3953 -6916 -6386 -4483 -4483 -6383 -6386 -4483 -4480 -6386 -6386 -4483 -4483 -6386 -6386 -4480 -4480 -6386 -6386 -4483 -4483 -6386 -6916 -3953 -4480 -6386 -6386 -4480 -4483 -6386 -5856 -5010 -4483 -6386 -6386 -4483 -4480 -6386 -6386 -4483 -4483 -6383 -6386 -4483 -4480 -6386 -6386 -4483 -4483 -6386 -6386 -4480 -5010 -5856 -6386 -4483 -4483 -6386 -6386 -4480 -3950 -6916 -6386 -4483 -4483 -6386 -6386 -4480 -4480 -6386 -6386 -4483 -4483 -6386 -6386 -4480 -4480 -6386 -6386 -4483 -4483 -6386 -6916 -3953 -4480 -6383 -6386 -4483 -4483 -6386 -5856 -5010 -4483 -6386 -6383 -4483 -4483 -6386 -6386 -4480 -4483 -6386 -6386 -4483 -4480 -6386 -6386 -4480 -4483 -6386 -6386 -4483 -5010 -5856 -6386 -4483 -4480 -6386 -6386 -4483 -3956 -6913 -6383 -4483 -4483 -6386 -6386 -4480 -4483 -6386 -6383 -4483 -4483 -6386 -6386 -4480 -4483 -6386 -6386 -4483 -4480 -6386 -6916 -3953 -4480 -6386 -6386 -4483 -4483 -6383 -5856 -5010 -4483 -6386 -6386 -4483 -4483 -6386 -6383 -4480 -4483 -6386 -6386 -4483 -4483 -6386 -6386 -4480 -4480 -6386 -6386 -4483 -5010 -5859 -6386 -4480 -4480 -6386 -6386 -4483 -3956 -6913 -6386 -4483 -4480 -6383 -6386 -4483 -4483 -6386 -6386 -4483 -4480 -6386 -6386 -4480 -4483 -6386 -6386 -4483 -4480 -6386 -6916 -3953 -4480 -6386 -6386 -4483 -4483 -6386 -5856 -5007 -4483 -6386 -6386 -4483 -4483 -6386 -6386 -4483 -4480 -6383 -6386 -4483 -4483 -6386 -6386 -4483 -4480 -6386 -6386 -4480 -5010 -5859 -6386 -4480 -4483 -6386 -6386 -4483 -3953 -6913 -6386 -4483 -4480 -6386 -6386 -4483 -4483 -6383 -6386 -4483 -4480 -6386 -6386 -4483 -4483 -6383 -6386 -4483 -4480 -6386 -6916 -3953 -4483 -6386 -6383 -4480 -4483 -6386 -5856 -5013 -4483 -6386 -6386 -4480 -4480 -6386 -6386 -4483 -4483 -6386 -6386 -4480 -4480 -6386 -6386 -4483 -4483 -6386 -6386 -4480 -5010 -5859 -6386 -4480 -4483 -6386 -6386 -4483 -3953 -6913 -6383 -4483 -4483 -6386 -6386 -4483 -4483 -6386 -6386 -4480 -4480 -6386 -6386 -4483 -4483 -6386 -6386 -4480 -4480 -6386 -6916 -3953 -4483 -6386 -6386 -4483 -4480 -6383 -5856 -5013 -4483 -6386 -6386 -4480 -4483 -6386 -6383 -4483 -4483 -6386 -6386 -4480 -4483 -6386 -6386 -4483 -4480 -6386 -6386 -4480 -5010 -5859 -6386 -4480 -4483 -6386 -6386 -4483 -3953 -6913 -6386 -4483 -4480 -6386 -6386 -4480 -4483 -6386 -6386 -4483 -4483 -6386 -6383 -4480 -4483 -6386 -6386 -4483 -4483 -6386 -6913 -3953 -4480 -6386 -6386 -4483 -4483 -6386 -5859 -5010 -4480 -6386 -6386 -4480 -4483 -6386 -6386 -4483 -4480 -6386 -6386 -4480 -4483 -6386 -6386 -4483 -4483 -6386 -6383 -4480 -5010 -5859 -6386 -4483 -4483 -6386 -6386 -4480 -3953 -6913 -6386 -4483 -4483 -6386 -6386 -4483 -4480 -6383 -6386 -4483 -4483 -6386 -6386 -4483 -4480 -6386 -6386 -4480 -4483 -6386 -6913 -3953 -4483 -6386 -6386 -4483 -4480 -6386 -5859 -5010 -4480 -6386 -6386 -4480 -4483 -6386 -6386 -4483 -4480 -6386 -6386 -4483 -4483 -6383 -6386 -4483 -4480 -6386 -6386 -4483 -5013 -5856 -6383 -4483 -4483 -6386 -6386 -4480 -3953 -6916 -6386 -4480 -4480 -6386 -6386 -4483 -4483 -6386 -6386 -4480 -4483 -6386 -6386 -4483 -4480 -6386 -6386 -4483 -4483 -6383 -6913 -3953 -4483 -6386 -6386 -4483 -4480 -6386 -5859 -5010 -4480 -6386 -6386 -4483 -4483 -6386 -6386 -4480 -4480 -6386 -6386 -4483 -5965 -4905 -5435 -5431 -2200 -5435 -8136 -1482 -5013 -4905 -5856 -4483 -5431 -1482 -5435 -3953 -5435 -1478 -5435 -3953 -5435 -1482 -7213 -4253 -9087 -1482 -10866 -4183 -16304 -1252 -43470 0 -16301 1782 -16304 3953z"/>
   <path class="fil0" d="M290749 3253809l92841 -88677c159461,-159461 1369677,-1357866 1403664,-1410532l-1496505 1499210z"/>
   <path class="fil0" d="M1821337 1673093c517,-1114 1392,-3985 1507,-3356 399,2171 6491,-24462 -1207,-45549l-300 48905z"/>
   <path class="fil0" d="M201105 3653c-15617,-5045 -30634,-4684 -43470,0l43470 0z"/>
   <path class="fil0" d="M5486 3151095l-5435 -32604c137,5246 -390,11386 374,16530 2296,15451 144,6737 5061,16074z"/>
   <path class="fil0" d="M5486 216824l-5435 -32601c137,5246 -390,11383 374,16527 2296,15454 144,6741 5061,16074z"/>
   <polygon class="fil0" points="206539,3288191 184804,3292374 206514,3291937 "/>
   <path class="fil0" d="M135899 3286940l-10869 -4180c7057,8490 -4285,7686 10869,4180z"/>
   <path class="fil0" d="M81560 3264314l-10869 -9024c5610,8707 -5406,3123 10869,9024z"/>
   <path class="fil0" d="M277179 3260722l-5435 3956c7536,3749 5435,4614 5435,-3956z"/>
   <path class="fil0" d="M1814424 1708399c-6460,-3560 -4905,-4611 -4905,2730l4905 -2730z"/>
   <polygon class="fil0" points="266313,25688 260878,21735 "/>
   <polygon class="fil0" points="85092,26870 81560,31123 "/>
   <polygon class="fil0" points="277600,31653 282614,36557 277600,31653 271744,27170 "/>
   <polygon class="fil0" points="26269,86413 22680,91848 "/>
   <polygon class="fil0" points="21199,98336 17246,102714 "/>
   <polygon class="fil0" points="11450,119014 15764,109205 "/>
   <polygon class="fil0" points="6016,135318 9969,124449 "/>
   <polygon class="fil0" points="51,173354 4534,146184 "/>
   <polygon class="fil0" points="9969,233128 6016,222259 "/>
   <polygon class="fil0" points="15764,248371 11450,246698 "/>
   <polygon class="fil0" points="20835,260297 17246,254863 "/>
   <polygon class="fil0" points="26633,270106 22316,265729 "/>
   <polygon class="fil0" points="48004,298333 33185,282032 "/>
   <polygon class="fil0" points="292949,43473 298384,48905 304349,53809 310735,58292 315215,64678 321601,69158 326084,75544 332470,80027 336950,86413 342809,91423 347289,97809 353675,102292 358158,108679 365071,112632 369554,119014 375940,123498 380420,129884 386806,134367 391289,140753 397675,145233 402158,151619 408544,156102 413024,162488 419410,166968 423363,173884 429749,178364 434232,184750 440615,189233 445628,195089 452014,199572 456494,205958 462880,210441 467363,216824 473749,221307 478229,227693 484615,232176 489098,238562 495484,243042 499964,249428 505824,254438 510303,260824 516689,265307 521173,271693 528085,275646 532569,282032 538955,286512 543434,292898 549821,297381 554304,303767 560690,308250 565170,314633 571556,319116 576039,325503 582425,329986 586378,336899 592764,341378 597247,347764 603633,352247 608643,358107 615026,362587 619509,368973 625895,373456 630378,379842 636764,384322 641244,390708 647630,395191 652113,401577 658499,406057 662979,412443 668838,417453 673321,423839 679707,428322 684187,434708 691100,438661 695583,445047 701969,449530 706452,455916 712835,460396 717318,466782 723704,471265 728187,477651 734574,482131 739053,488517 745439,493000 749392,499913 755779,504396 760262,510782 766648,515262 771658,521121 778044,525601 782524,531987 788910,536470 793393,542857 799779,547336 804262,553722 810645,558205 815128,564592 821514,569071 825997,575458 831853,580471 836333,586854 842719,591337 847202,597723 854118,601676 858598,608062 864984,612542 869467,618928 875853,623411 880333,629797 886719,634277 891202,640663 897588,645146 902071,651532 908454,656015 912407,662928 918793,667411 923276,673797 929662,678277 934672,684136 941058,688616 945541,695002 951927,699485 956407,705871 962793,710351 967276,716737 973663,721220 978142,727606 984529,732086 989012,738472 994868,743485 999351,749871 1005734,754351 1010217,760737 1017133,764690 1021613,771076 1027999,775559 1032482,781942 1038868,786425 1043348,792812 1049734,797295 1054217,803677 1060603,808160 1065083,814547 1071469,819030 1075422,825943 1081808,830426 1086291,836812 1092677,841292 1097687,847151 1104073,851631 1108553,858017 1114939,862500 1119422,868886 1125808,873369 1130288,879752 1136674,884235 1141157,890621 1147543,895104 1152026,901490 1157882,906497 1162365,912883 1168751,917366 1173231,923752 1180147,927705 1184627,934091 1191013,938574 1195496,944960 1201882,949440 1206362,955826 1212748,960309 1217231,966695 1223618,971178 1228097,977561 1234484,982044 1238440,988957 1244826,993440 1249306,999826 1255692,1004306 1260702,1010165 1267088,1014649 1271568,1021035 1277954,1025514 1282437,1031901 1288823,1036384 1293306,1042770 1299689,1047250 1304172,1053636 1310558,1058119 1315041,1064505 1320897,1069515 1325380,1075898 1331766,1080381 1336246,1086767 1343162,1090720 1347642,1097106 1354028,1101589 1358511,1107975 1364897,1112455 1369380,1118841 1375763,1123324 1380246,1129710 1386632,1134190 1391115,1140576 1397498,1145059 1401454,1151972 1407840,1156455 1412320,1162841 1418706,1167324 1423716,1173180 1430102,1177663 1434585,1184049 1440972,1188529 1445451,1194915 1451837,1199398 1456321,1205784 1462707,1210264 1467190,1216650 1473573,1221133 1478056,1227519 1483912,1232529 1488395,1238915 1494781,1243399 1499261,1249781 1506177,1253734 1510660,1260121 1517046,1264604 1521526,1270990 1527912,1275469 1532395,1281856 1538781,1286339 1543261,1292725 1549647,1297205 1554130,1303591 1560516,1308074 1564466,1314990 1570852,1319470 1575335,1325856 1581721,1330339 1586731,1336195 1593117,1340675 1597600,1347061 1603986,1351544 1608466,1357930 1614852,1362413 1619335,1368796 1625721,1373279 1630201,1379665 1636587,1384148 1641070,1390534 1646926,1395544 1651409,1401930 1657795,1406410 1662275,1412796 1669191,1416749 1673675,1423135 1680061,1427618 1684540,1434004 1690927,1438484 1695410,1444870 1701796,1449353 1706276,1455739 1712662,1460222 1717145,1466605 1723531,1471088 1727484,1478005 1733870,1482484 1738350,1488870 1744736,1493354 1749746,1499210 1756132,1503693 1760615,1510079 1767001,1514559 1771481,1520945 1776915,1526379 1781823,1532341 1787254,1537248 1781823,1532341 1776915,1526379 1771481,1520945 1767001,1514559 1760615,1510079 1756132,1503693 1749746,1499210 1744736,1493354 1738350,1488870 1733870,1482484 1727484,1478005 1723531,1471088 1717145,1466605 1712662,1460222 1706276,1455739 1701796,1449353 1695410,1444870 1690927,1438484 1684540,1434004 1680061,1427618 1673675,1423135 1669191,1416749 1662275,1412796 1657795,1406410 1651409,1401930 1646926,1395544 1641070,1390534 1636587,1384148 1630201,1379665 1625721,1373279 1619335,1368796 1614852,1362413 1608466,1357930 1603986,1351544 1597600,1347061 1593117,1340675 1586731,1336195 1581721,1330339 1575335,1325856 1570852,1319470 1564466,1314990 1560516,1308074 1554130,1303591 1549647,1297205 1543261,1292725 1538781,1286339 1532395,1281856 1527912,1275469 1521526,1270990 1517046,1264604 1510660,1260121 1506177,1253734 1499261,1249781 1494781,1243399 1488395,1238915 1483912,1232529 1478056,1227519 1473573,1221133 1467190,1216650 1462707,1210264 1456321,1205784 1451837,1199398 1445451,1194915 1440972,1188529 1434585,1184049 1430102,1177663 1423716,1173180 1418706,1167324 1412320,1162841 1407840,1156455 1401454,1151972 1397498,1145059 1391115,1140576 1386632,1134190 1380246,1129710 1375763,1123324 1369380,1118841 1364897,1112455 1358511,1107975 1354028,1101589 1347642,1097106 1343162,1090720 1336246,1086767 1331766,1080381 1325380,1075898 1320897,1069515 1315041,1064505 1310558,1058119 1304172,1053636 1299689,1047250 1293306,1042770 1288823,1036384 1282437,1031901 1277954,1025514 1271568,1021035 1267088,1014649 1260702,1010165 1255692,1004306 1249306,999826 1244826,993440 1238440,988957 1234484,982044 1228097,977561 1223618,971178 1217231,966695 1212748,960309 1206362,955826 1201882,949440 1195496,944960 1191013,938574 1184627,934091 1180147,927705 1173231,923752 1168751,917366 1162365,912883 1157882,906497 1152026,901490 1147543,895104 1141157,890621 1136674,884235 1130288,879752 1125808,873369 1119422,868886 1114939,862500 1108553,858017 1104073,851631 1097687,847151 1092677,841292 1086291,836812 1081808,830426 1075422,825943 1071469,819030 1065083,814547 1060603,808160 1054217,803677 1049734,797295 1043348,792812 1038868,786425 1032482,781942 1027999,775559 1021613,771076 1017133,764690 1010217,760737 1005734,754351 999351,749871 994868,743485 989012,738472 984529,732086 978142,727606 973663,721220 967276,716737 962793,710351 956407,705871 951927,699485 945541,695002 941058,688616 934672,684136 929662,678277 923276,673797 918793,667411 912407,662928 908454,656015 902071,651532 897588,645146 891202,640663 886719,634277 880333,629797 875853,623411 869467,618928 864984,612542 858598,608062 854118,601676 847202,597723 842719,591337 836333,586854 831853,580471 825997,575458 821514,569071 815128,564592 810645,558205 804262,553722 799779,547336 793393,542857 788910,536470 782524,531987 778044,525601 771658,521121 766648,515262 760262,510782 755779,504396 749392,499913 745439,493000 739053,488517 734574,482131 728187,477651 723704,471265 717318,466782 712835,460396 706452,455916 701969,449530 695583,445047 691100,438661 684187,434708 679707,428322 673321,423839 668838,417453 662979,412443 658499,406057 652113,401577 647630,395191 641244,390708 636764,384322 630378,379842 625895,373456 619509,368973 615026,362587 608643,358107 603633,352247 597247,347764 592764,341378 586378,336899 582425,329986 576039,325503 571556,319116 565170,314633 560690,308250 554304,303767 549821,297381 543434,292898 538955,286512 532569,282032 528085,275646 521173,271693 516689,265307 510303,260824 505824,254438 499964,249428 495484,243042 489098,238562 484615,232176 478229,227693 473749,221307 467363,216824 462880,210441 456494,205958 452014,199572 445628,195089 440615,189233 434232,184750 429749,178364 423363,173884 419410,166968 413024,162488 408544,156102 402158,151619 397675,145233 391289,140753 386806,134367 380420,129884 375940,123498 369554,119014 365071,112632 358158,108679 353675,102292 347289,97809 342809,91423 336950,86413 332470,80027 326084,75544 321601,69158 315215,64678 310735,58292 304349,53809 298384,48905 292949,43473 290749,38039 "/>
   <polygon class="fil0" points="1798124,1556250 1788736,1542680 "/>
   <polygon class="fil0" points="1803855,1562512 1799602,1561685 "/>
   <polygon class="fil0" points="1808990,1575284 1805337,1569849 "/>
   <polygon class="fil0" points="1814063,1586153 1810471,1580719 "/>
   <polygon class="fil0" points="1819859,1607888 1814951,1597019 "/>
   <polygon class="fil0" points="1375868,1667068 1391642,1648625 "/>
   <polygon class="fil0" points="1814951,1700263 1819859,1683963 "/>
   <polygon class="fil0" points="1325907,1715612 1368790,1674150 "/>
   <polygon class="fil0" points="1808990,1716564 1805337,1721998 "/>
   <polygon class="fil0" points="1798421,1740205 1794171,1743733 "/>
   <polygon class="fil0" points="1234589,1808351 1319885,1723055 "/>
   <polygon class="fil0" points="1227510,1815430 1223723,1819217 "/>
   <polygon class="fil0" points="1179193,1862323 1216641,1826296 "/>
   <polygon class="fil0" points="1136779,1906157 1172807,1868709 "/>
   <polygon class="fil0" points="1086818,1954698 1129700,1913236 "/>
   <polygon class="fil0" points="1038970,2003967 1075361,1967575 "/>
   <polygon class="fil0" points="59400,47953 53439,52858 48534,58822 42573,63727 37138,69158 33185,75544 37138,69158 42573,63727 48534,58822 53439,52858 59400,47953 64835,42519 68788,37739 64835,42519 "/>
   <polygon class="fil0" points="897694,2145246 977552,2065385 "/>
   <polygon class="fil0" points="890611,2152328 886824,2156112 "/>
   <polygon class="fil0" points="847732,2193790 879742,2163194 "/>
   <polygon class="fil0" points="799884,2243056 835911,2205608 "/>
   <polygon class="fil0" points="745545,2297395 792802,2250135 "/>
   <polygon class="fil0" points="647735,2395204 738463,2304474 "/>
   <polygon class="fil0" points="603208,2438311 640656,2402283 "/>
   <polygon class="fil0" points="560795,2482145 596822,2444697 "/>
   <polygon class="fil0" points="510833,2530685 553713,2489224 "/>
   <polygon class="fil0" points="419515,2623424 504808,2538128 "/>
   <polygon class="fil0" points="412436,2630503 408646,2634290 "/>
   <polygon class="fil0" points="364119,2677400 401567,2641372 "/>
   <polygon class="fil0" points="310837,2732100 357733,2683786 "/>
   <polygon class="fil0" points="271744,2769775 303758,2739182 "/>
   <polygon class="fil0" points="223897,2819040 265358,2776161 "/>
   <polygon class="fil0" points="169560,2873379 216818,2826122 "/>
   <polygon class="fil0" points="119599,2921923 162478,2880462 "/>
   <polygon class="fil0" points="71751,2971189 113213,2928309 "/>
   <polygon class="fil0" points="38317,3006134 64669,2978268 "/>
   <polygon class="fil0" points="31704,3015250 26924,3018778 "/>
   <polygon class="fil0" points="141334,5435 125030,9388 "/>
   <polygon class="fil0" points="6016,3069589 9969,3058720 "/>
   <polygon class="fil0" points="51,3107625 4534,3080455 "/>
   <polygon class="fil0" points="228274,9087 217408,4905 "/>
   <polygon class="fil0" points="10920,3172830 5486,3156529 "/>
   <polygon class="fil0" points="15403,3183699 11450,3180969 "/>
   <polygon class="fil0" points="20835,3194565 16882,3189130 "/>
   <polygon class="fil0" points="26633,3204377 22316,3199999 "/>
   <polygon class="fil0" points="42573,3227169 32885,3218206 "/>
   <polygon class="fil0" points="122300,10869 114164,14522 "/>
   <polygon class="fil0" points="984634,2058306 1031891,2011046 "/>
   <polygon class="fil0" points="244575,14822 237362,10569 "/>
   <polygon class="fil0" points="92429,3270112 88051,3265795 "/>
   <polygon class="fil0" points="103295,3275547 97861,3271591 "/>
   <polygon class="fil0" points="117693,3281805 108730,3277025 "/>
   <polygon class="fil0" points="239143,3280978 259822,3271230 "/>
   <polygon class="fil0" points="106827,16004 98921,20618 "/>
   <polygon class="fil0" points="233709,3282457 222840,3286413 "/>
   <polygon class="fil0" points="173935,3292374 146765,3288191 "/>
   <polygon class="fil0" points="255444,20257 250009,16304 "/>
   <polygon class="fil0" points="21199,3032607 17246,3036985 "/>
  </g>
 </g>
</svg>
