<?xml version="1.0" encoding="UTF-8"?>
<!DOCTYPE svg PUBLIC "-//W3C//DTD SVG 1.1//EN" "http://www.w3.org/Graphics/SVG/1.1/DTD/svg11.dtd">
<!-- Creator: CorelDRAW 2019 (64-Bit) -->
<svg xmlns="http://www.w3.org/2000/svg" xml:space="preserve" width="57.1714mm" height="103.111mm" version="1.1" style="shape-rendering:geometricPrecision; text-rendering:geometricPrecision; image-rendering:optimizeQuality; fill-rule:evenodd; clip-rule:evenodd"
viewBox="0 0 6585.08 11876.43"
 xmlns:xlink="http://www.w3.org/1999/xlink"
 xmlns:xodm="http://www.corel.com/coreldraw/odm/2003">
 <defs>
  <style type="text/css">
   <![CDATA[
    .fil0 {fill:#88B693}
   ]]>
  </style>
 </defs>
 <g id="Слой_x0020_1">
  <metadata id="CorelCorpID_0Corel-Layer"/>
  <g id="_2401907550832">
   <path class="fil0" d="M6134.06 33.86l9.85 5.34 29.35 13.18 26.47 5.34 28.52 16.64 49.89 22.55 12.74 15.34 46.07 23.87 14.26 17.24 19.6 19.6 21.5 17.69 17.69 21.52 21.5 17.69 19.6 19.59 14.26 23.04 24.95 39.21 12.95 19.6 5.34 23.4 14.26 15.79 5.34 23.42 15.56 35.38 5.34 19.6 14.26 39.21 5.34 39.2 16.17 98.01 0 39.21 -19.6 117.6 -1.91 19.6 -14.26 39.21 -5.34 48.95 -15.56 6.04 -5.34 23.42 -12.95 19.6 -5.34 19.59 -15.57 15.79 -23.64 43.02 -53.46 58.8c-103.72,132.44 -3399.19,3405.55 -3637.76,3644.12 -143.79,143.79 -1168.33,1144.17 -1209.08,1226.73l56.9 66.53 25.54 25.55 154.69 149.56 21.72 26.85 307.68 307.68 25.54 25.54 13.66 13.66 25.55 25.54 135.08 129.96 23.04 23.04 129.96 135.08 25.54 25.54 154.69 149.56 41.33 46.45 131.27 131.27 25.54 25.54 170.47 170.48 25.55 25.54 288.07 288.08 25.55 25.55 13.66 13.65 25.55 25.55 115.47 110.37 42.64 42.63 129.96 135.08 25.55 25.54 170.47 170.48 25.55 25.54 327.28 327.29 25.54 25.54 135.08 129.96 23.04 23.04 129.96 135.08 25.55 25.54 154.68 149.56 21.73 26.85 307.67 307.68 25.54 25.54 13.67 13.66 25.54 25.55 135.08 129.96 23.04 23.04 169.17 174.28 25.54 25.55 115.48 110.36 23.04 23.04 149.56 154.68 25.54 25.55 170.47 170.47 25.55 25.55 154.68 149.56 23.04 23.04 149.56 154.68 25.55 25.54 95.06 100.52 23.85 32.88 17.24 12.73 20.65 49.89 14.26 15.79 26.25 78.4 14.26 39.21 5.34 39.2 16.17 98.01 0 39.2 -19.6 117.61 0 19.6 -19.6 58.8 -1.91 29.36 -14.26 9.85 -5.33 19.59 -14.26 19.6 -5.34 19.6 -15.57 15.79 -22.55 49.89 -34.95 32.33 -101.43 101.44 -39.21 32.55 -23.42 5.34 -15.79 15.57 -19.59 5.33 -19.6 14.27 -19.6 5.33 -32.33 17.24 -26.47 3.44 -39.21 15.08 -39.2 4.52 -98.01 15.09 -39.21 0 -78.4 -15.09 -58.8 -6.42 -39.21 -14.27 -19.6 -5.33 -74.59 -35.16 -43.01 -23.64 -19.6 -14.27c-36.04,-17.66 -14.36,4.15 -48.95,-24.94l-5398.27 -5408.03 -24.95 -39.2 -15.33 -12.73 -24.95 -65.68 -13.18 -19.6 -1.91 -19.6c0,-26.48 5.61,-22.69 -17.69,-9.85l-1.9 -29.35 -17.7 -58.8 -5.33 -39.21 -1.08 -176.41 6.42 -58.8 17.7 -39.21 3.2 -39.2 12.96 -19.6 5.34 -19.6 13.18 -19.6 5.34 -26.47 15.34 -2.98 5.33 -19.6 33.86 -48.95 5.34 -19.59 19.59 -17.7 17.7 -21.5 19.6 -19.6 16.16 -23.04 23.04 -16.16 16.17 -23.04 23.04 -16.17 18.07 -21.12 23.04 -16.17 16.16 -23.04 23.04 -16.16 14.26 -24.95 23.04 -16.17 16.17 -23.02 23.04 -16.17 16.16 -23.04 23.04 -16.17 16.17 -23.04 23.04 -16.16 16.16 -23.04 23.04 -16.17 16.17 -23.04 24.95 -14.26 16.16 -23.04 23.04 -16.16 16.17 -23.04 21.12 -18.07 16.17 -23.04 23.04 -16.17 16.16 -23.04 23.04 -16.17 16.17 -23.02 23.04 -16.17 16.16 -23.04 23.04 -16.17 16.17 -23.04 23.04 -16.16 18.07 -21.12 23.04 -16.17 16.17 -23.04 23.04 -16.16 14.25 -24.95 23.04 -16.17 16.17 -23.04 23.04 -16.16 16.16 -23.04 23.04 -16.17 16.17 -23.04 23.04 -16.16 16.16 -23.04 23.04 -16.17 16.17 -23.04 24.95 -14.26 16.16 -23.02 23.04 -16.17 16.17 -23.04 21.12 -18.07 16.17 -23.04 23.02 -16.17 16.17 -23.04 23.04 -16.16 16.17 -23.04 23.04 -16.17 16.16 -23.04 23.04 -16.16 16.17 -23.04 23.04 -16.17 18.07 -21.12 23.04 -16.17 16.16 -23.04 23.04 -16.17 14.27 -24.94 23.02 -16.17 16.17 -23.04 23.04 -16.16 16.17 -23.04 23.02 -16.17 16.17 -23.04 23.04 -16.16 16.17 -23.04 23.04 -16.17 16.16 -23.04 24.95 -14.26 16.16 -23.04 23.04 -16.17 16.17 -23.02 21.12 -18.07 16.17 -23.04 23.04 -16.17 16.17 -23.04 23.02 -16.16 16.17 -23.04 23.04 -16.17 16.17 -23.04 23.04 -16.16 16.16 -23.04 23.04 -16.17 18.07 -21.14 23.04 -16.16 16.16 -23.04 23.04 -16.17 14.27 -24.94 23.04 -16.17 16.16 -23.02 23.04 -16.17 16.17 -23.04 23.04 -16.17 16.16 -23.04 23.04 -16.16 16.17 -23.04 23.04 -16.17 16.16 -23.04 24.95 -14.26 16.16 -23.04 23.04 -16.17 16.17 -23.04 21.12 -18.06 16.17 -23.04 23.04 -16.17 16.17 -23.04 23.04 -16.17 16.16 -23.02 23.04 -16.17 16.17 -23.04 23.04 -16.17 16.16 -23.04 23.04 -16.16 18.07 -21.14 23.04 -16.16 16.17 -23.04 23.04 -16.17 14.26 -24.94 23.04 -16.17 16.16 -23.04 23.04 -16.17 16.17 -23.02 23.04 -16.17 16.16 -23.04 23.04 -16.17 16.17 -23.02 23.04 -16.17 16.16 -23.04 24.95 -14.26 16.17 -23.04 23.02 -16.16 16.17 -23.04 21.12 -18.08 16.17 -23.04 23.04 -16.16 16.16 -23.04 23.04 -16.17 16.17 -23.04 23.04 -16.16 16.16 -23.04 23.04 -16.17 16.17 -23.04 23.04 -16.16 18.07 -21.14 23.04 -16.16 16.17 -23.04 23.04 -16.17 14.26 -24.94 23.02 -16.17 16.17 -23.04 23.04 -16.17 16.17 -23.04 23.04 -16.16 16.16 -23.04 23.04 -16.17 16.17 -23.04 23.04 -16.16 16.16 -23.04 24.95 -14.26 16.17 -23.04 23.04 -16.17 16.16 -23.02 21.12 -18.08 16.17 -23.04 23.04 -16.16 16.17 -23.04 23.02 -16.17 16.17 -23.04 23.04 -16.16 16.17 -23.04 23.04 -16.17 16.16 -23.04 23.04 -16.16 18.07 -21.14 23.04 -16.16 16.17 -23.04 23.04 -16.17 14.26 -24.94 23.04 -16.17 16.16 -23.04 23.04 -16.16 16.17 -23.04 23.04 -16.17 16.17 -23.04 23.02 -16.16 16.17 -23.04 23.04 -16.17 16.17 -23.04 24.94 -14.26 16.16 -23.04 23.04 -16.17 16.17 -23.04 21.14 -18.07 16.16 -23.04 23.04 -16.16 16.17 -23.04 23.04 -16.17 16.16 -23.04 23.04 -16.16 16.17 -23.04 23.04 -16.17 16.17 -23.04 23.02 -16.16 18.07 -21.14 23.04 -16.17 16.17 -23.04 23.04 -16.16 14.26 -24.94 23.04 -16.17 16.17 -23.04 23.04 -16.17 16.16 -23.02 23.04 -16.17 16.17 -23.04 23.04 -16.17 16.16 -23.04 23.04 -16.16 16.17 -23.04 24.94 -14.26 16.17 -23.04 23.04 -16.17 16.16 -23.04 21.14 -18.07 16.16 -23.04 23.04 -16.16 16.17 -23.04 23.04 -16.17 16.16 -23.04 23.04 -16.17 16.17 -23.02 23.04 -16.17 16.16 -23.04 23.04 -16.17 18.08 -21.12 23.02 -16.17 16.17 -23.04 23.04 -16.16 14.26 -24.95 23.04 -16.16 16.16 -23.04 23.04 -16.17 16.17 -23.04 23.04 -16.16 16.17 -23.04 23.04 -16.17 16.16 -23.04 23.04 -16.17 16.17 -23.02 24.94 -14.26 16.17 -23.04 23.04 -16.17 16.16 -23.04 21.14 -18.07 16.16 -23.04 23.04 -16.17 16.17 -23.04 23.04 -16.16 16.16 -23.04 23.04 -16.17 21.52 -17.69 19.6 -19.59 7.94 -19.6 29.35 -5.34 18.08 -17.69 21.12 -16.17 19.59 -5.34 19.6 -14.26 19.6 -5.33 19.6 -14.26 19.6 -5.34 26.02 -15.34 32.78 -5.34 39.2 -15.09 58.81 -4.52 156.81 0 58.8 6.43 58.81 14.26z"/>
   <path class="fil0" d="M5536.27 11737.31l-334.9 -319.88c-575.22,-575.22 -4940.77,-4898.17 -5063.37,-5088.15l5398.27 5408.03z"/>
   <path class="fil0" d="M15.05 6035.27c-1.87,-4.02 -5.02,-14.37 -5.44,-12.11 -1.44,7.83 -23.42,-88.24 4.35,-164.31l1.08 176.41z"/>
   <path class="fil0" d="M5859.64 13.18c56.34,-18.2 110.5,-16.9 156.81,0l-156.81 0z"/>
   <path class="fil0" d="M6565.29 11366.8l19.6 -117.61c-0.5,18.92 1.41,41.07 -1.35,59.63 -8.28,55.74 -0.52,24.3 -18.26,57.98z"/>
   <path class="fil0" d="M6565.29 782.14l19.6 -117.6c-0.5,18.92 1.41,41.06 -1.35,59.62 -8.28,55.75 -0.52,24.31 -18.26,57.98z"/>
   <polygon class="fil0" points="5840.04,11861.34 5918.44,11876.43 5840.13,11874.85 "/>
   <path class="fil0" d="M6094.85 11856.82l39.21 -15.08c-25.46,30.63 15.46,27.72 -39.21,15.08z"/>
   <path class="fil0" d="M6290.87 11775.21l39.21 -32.55c-20.24,31.41 19.5,11.26 -39.21,32.55z"/>
   <path class="fil0" d="M5585.22 11762.25l19.6 14.27c-27.18,13.52 -19.6,16.64 -19.6,-14.27z"/>
   <path class="fil0" d="M39.99 6162.63c23.3,-12.84 17.69,-16.63 17.69,9.85l-17.69 -9.85z"/>
   <polygon class="fil0" points="5624.42,92.66 5644.02,78.4 "/>
   <polygon class="fil0" points="6278.13,96.93 6290.87,112.27 "/>
   <polygon class="fil0" points="5583.7,114.18 5565.62,131.87 5583.7,114.18 5604.83,98.01 "/>
   <polygon class="fil0" points="6490.32,311.72 6503.26,331.32 "/>
   <polygon class="fil0" points="6508.61,354.72 6522.87,370.52 "/>
   <polygon class="fil0" points="6543.77,429.32 6528.21,393.93 "/>
   <polygon class="fil0" points="6563.38,488.13 6549.12,448.92 "/>
   <polygon class="fil0" points="6584.89,625.33 6568.72,527.32 "/>
   <polygon class="fil0" points="6549.12,840.95 6563.38,801.74 "/>
   <polygon class="fil0" points="6528.21,895.94 6543.77,889.9 "/>
   <polygon class="fil0" points="6509.92,938.96 6522.87,919.35 "/>
   <polygon class="fil0" points="6489,974.34 6504.58,958.55 "/>
   <polygon class="fil0" points="6411.91,1076.16 6465.37,1017.36 "/>
   <polygon class="fil0" points="5528.33,156.82 5508.73,176.41 5487.22,194.1 5464.18,210.28 5448.02,233.31 5424.98,249.47 5408.81,272.51 5385.77,288.68 5369.61,311.72 5348.48,329.79 5332.32,352.82 5309.28,368.99 5293.11,392.03 5268.17,406.29 5252,429.32 5228.97,445.49 5212.81,468.52 5189.77,484.69 5173.6,507.73 5150.56,523.89 5134.39,546.93 5111.36,563.1 5095.2,586.13 5072.16,602.29 5057.9,627.24 5034.86,643.4 5018.69,666.44 4995.67,682.61 4977.58,703.73 4954.55,719.91 4938.39,742.94 4915.35,759.11 4899.18,782.14 4876.14,798.31 4859.98,821.35 4836.95,837.52 4820.78,860.55 4797.74,876.71 4781.58,899.75 4760.44,917.82 4744.28,940.86 4721.25,957.03 4705.08,980.07 4680.14,994.33 4663.97,1017.36 4640.93,1033.52 4624.77,1056.56 4601.74,1072.73 4585.56,1095.77 4562.53,1111.94 4546.37,1134.96 4523.33,1151.13 4507.16,1174.17 4484.12,1190.34 4469.86,1215.28 4446.83,1231.44 4430.66,1254.47 4407.62,1270.65 4389.55,1291.78 4366.52,1307.94 4350.35,1330.98 4327.32,1347.15 4311.14,1370.19 4288.11,1386.35 4271.95,1409.38 4248.91,1425.55 4232.74,1448.59 4209.7,1464.75 4193.54,1487.79 4172.41,1505.86 4156.24,1528.89 4133.2,1545.07 4117.04,1568.1 4092.1,1582.36 4075.93,1605.4 4052.9,1621.57 4036.73,1644.6 4013.7,1660.76 3997.53,1683.8 3974.49,1699.97 3958.32,1723.01 3935.28,1739.17 3919.13,1762.21 3896.09,1778.38 3881.83,1803.31 3858.79,1819.48 3842.62,1842.52 3819.59,1858.68 3801.51,1879.82 3778.48,1895.98 3762.32,1919.01 3739.28,1935.18 3723.11,1958.22 3700.07,1974.38 3683.9,1997.42 3660.88,2013.59 3644.71,2036.62 3621.67,2052.78 3605.5,2075.82 3584.37,2093.9 3568.21,2116.93 3545.18,2133.1 3529.01,2156.14 3504.06,2170.4 3487.9,2193.43 3464.86,2209.59 3448.69,2232.63 3425.65,2248.8 3409.49,2271.84 3386.46,2288 3370.29,2311.03 3347.25,2327.2 3331.08,2350.24 3308.05,2366.41 3293.79,2391.35 3270.76,2407.52 3254.59,2430.56 3231.55,2446.72 3213.48,2467.85 3190.44,2484.01 3174.27,2507.05 3151.23,2523.22 3135.07,2546.26 3112.04,2562.42 3095.87,2585.45 3072.83,2601.62 3056.67,2624.66 3033.63,2640.82 3017.46,2663.86 2996.34,2681.94 2980.17,2704.98 2957.14,2721.14 2940.97,2744.17 2916.02,2758.43 2899.86,2781.47 2876.83,2797.64 2860.65,2820.66 2837.62,2836.84 2821.46,2859.87 2798.42,2876.04 2782.25,2899.07 2759.21,2915.24 2743.05,2938.28 2720.02,2954.45 2705.76,2979.38 2682.72,2995.56 2666.55,3018.59 2643.51,3034.75 2625.44,3055.89 2602.41,3072.05 2586.25,3095.08 2563.21,3111.25 2547.04,3134.29 2524,3150.46 2507.84,3173.49 2484.81,3189.66 2468.64,3212.69 2445.6,3228.87 2429.43,3251.9 2408.3,3269.96 2392.13,3293 2369.1,3309.17 2352.94,3332.21 2327.99,3346.47 2311.83,3369.5 2288.79,3385.67 2272.62,3408.71 2249.58,3424.87 2233.42,3447.91 2210.39,3464.08 2194.22,3487.11 2171.18,3503.29 2155.02,3526.31 2131.98,3542.48 2117.71,3567.42 2094.68,3583.59 2078.52,3606.63 2055.48,3622.79 2037.41,3643.92 2014.37,3660.09 1998.21,3683.13 1975.18,3699.29 1959,3722.33 1935.97,3738.5 1919.8,3761.53 1896.77,3777.69 1880.6,3800.73 1857.56,3816.9 1841.39,3839.94 1820.27,3858.01 1804.1,3881.03 1781.06,3897.21 1764.9,3920.24 1739.95,3934.5 1723.79,3957.54 1700.76,3973.71 1684.58,3996.75 1661.55,4012.91 1645.38,4035.94 1622.35,4052.11 1606.18,4075.15 1583.14,4091.31 1566.97,4114.35 1543.95,4130.52 1529.68,4155.45 1506.64,4171.63 1490.48,4194.66 1467.44,4210.83 1449.37,4231.96 1426.34,4248.13 1410.16,4271.17 1387.13,4287.33 1370.97,4310.36 1347.93,4326.53 1331.76,4349.57 1308.72,4365.73 1292.55,4388.77 1269.53,4404.94 1253.36,4427.97 1232.23,4446.05 1216.06,4469.08 1193.03,4485.25 1176.87,4508.28 1151.92,4522.54 1135.75,4545.57 1112.71,4561.74 1096.55,4584.78 1073.51,4600.94 1057.34,4623.98 1034.31,4640.15 1018.15,4663.18 995.11,4679.34 978.94,4702.38 955.9,4718.55 941.65,4743.5 918.62,4759.66 902.45,4782.7 879.41,4798.87 861.34,4819.99 838.3,4836.15 822.13,4859.19 799.09,4875.36 782.93,4898.4 759.9,4914.57 743.73,4937.59 720.69,4953.76 704.53,4976.8 681.49,4992.97 665.32,5016.01 644.2,5034.08 628.03,5057.12 604.99,5073.28 588.83,5096.31 563.88,5110.57 547.71,5133.61 524.67,5149.78 508.51,5172.82 485.48,5188.98 469.31,5212.01 446.27,5228.18 430.11,5251.22 407.07,5267.39 390.9,5290.42 367.87,5306.59 353.61,5331.54 330.57,5347.7 314.41,5370.73 291.37,5386.9 273.3,5408.03 250.27,5424.2 234.09,5447.24 211.06,5463.4 194.9,5486.43 175.29,5506.04 157.59,5527.54 138,5545.24 157.59,5527.54 175.29,5506.04 194.9,5486.43 211.06,5463.4 234.09,5447.24 250.27,5424.2 273.3,5408.03 291.37,5386.9 314.41,5370.73 330.57,5347.7 353.61,5331.54 367.87,5306.59 390.9,5290.42 407.07,5267.39 430.11,5251.22 446.27,5228.18 469.31,5212.01 485.48,5188.98 508.51,5172.82 524.67,5149.78 547.71,5133.61 563.88,5110.57 588.83,5096.31 604.99,5073.28 628.03,5057.12 644.2,5034.08 665.32,5016.01 681.49,4992.97 704.53,4976.8 720.69,4953.76 743.73,4937.59 759.9,4914.57 782.93,4898.4 799.09,4875.36 822.13,4859.19 838.3,4836.15 861.34,4819.99 879.41,4798.87 902.45,4782.7 918.62,4759.66 941.65,4743.5 955.9,4718.55 978.94,4702.38 995.11,4679.34 1018.15,4663.18 1034.31,4640.15 1057.34,4623.98 1073.51,4600.94 1096.55,4584.78 1112.71,4561.74 1135.75,4545.57 1151.92,4522.54 1176.87,4508.28 1193.03,4485.25 1216.06,4469.08 1232.23,4446.05 1253.36,4427.97 1269.53,4404.94 1292.55,4388.77 1308.72,4365.73 1331.76,4349.57 1347.93,4326.53 1370.97,4310.36 1387.13,4287.33 1410.16,4271.17 1426.34,4248.13 1449.37,4231.96 1467.44,4210.83 1490.48,4194.66 1506.64,4171.63 1529.68,4155.45 1543.95,4130.52 1566.97,4114.35 1583.14,4091.31 1606.18,4075.15 1622.35,4052.11 1645.38,4035.94 1661.55,4012.91 1684.58,3996.75 1700.76,3973.71 1723.79,3957.54 1739.95,3934.5 1764.9,3920.24 1781.06,3897.21 1804.1,3881.03 1820.27,3858.01 1841.39,3839.94 1857.56,3816.9 1880.6,3800.73 1896.77,3777.69 1919.8,3761.53 1935.97,3738.5 1959,3722.33 1975.18,3699.29 1998.21,3683.13 2014.37,3660.09 2037.41,3643.92 2055.48,3622.79 2078.52,3606.63 2094.68,3583.59 2117.71,3567.42 2131.98,3542.48 2155.02,3526.31 2171.18,3503.29 2194.22,3487.11 2210.39,3464.08 2233.42,3447.91 2249.58,3424.87 2272.62,3408.71 2288.79,3385.67 2311.83,3369.5 2327.99,3346.47 2352.94,3332.21 2369.1,3309.17 2392.13,3293 2408.3,3269.96 2429.43,3251.9 2445.6,3228.87 2468.64,3212.69 2484.81,3189.66 2507.84,3173.49 2524,3150.46 2547.04,3134.29 2563.21,3111.25 2586.25,3095.08 2602.41,3072.05 2625.44,3055.89 2643.51,3034.75 2666.55,3018.59 2682.72,2995.56 2705.76,2979.38 2720.02,2954.45 2743.05,2938.28 2759.21,2915.24 2782.25,2899.07 2798.42,2876.04 2821.46,2859.87 2837.62,2836.84 2860.65,2820.66 2876.83,2797.64 2899.86,2781.47 2916.02,2758.43 2940.97,2744.17 2957.14,2721.14 2980.17,2704.98 2996.34,2681.94 3017.46,2663.86 3033.63,2640.82 3056.67,2624.66 3072.83,2601.62 3095.87,2585.45 3112.04,2562.42 3135.07,2546.26 3151.23,2523.22 3174.27,2507.05 3190.44,2484.01 3213.48,2467.85 3231.55,2446.72 3254.59,2430.56 3270.76,2407.52 3293.79,2391.35 3308.05,2366.41 3331.08,2350.24 3347.25,2327.2 3370.29,2311.03 3386.46,2288 3409.49,2271.84 3425.65,2248.8 3448.69,2232.63 3464.86,2209.59 3487.9,2193.43 3504.06,2170.4 3529.01,2156.14 3545.18,2133.1 3568.21,2116.93 3584.37,2093.9 3605.5,2075.82 3621.67,2052.78 3644.71,2036.62 3660.88,2013.59 3683.9,1997.42 3700.07,1974.38 3723.11,1958.22 3739.28,1935.18 3762.32,1919.01 3778.48,1895.98 3801.51,1879.82 3819.59,1858.68 3842.62,1842.52 3858.79,1819.48 3881.83,1803.31 3896.09,1778.38 3919.13,1762.21 3935.28,1739.17 3958.32,1723.01 3974.49,1699.97 3997.53,1683.8 4013.7,1660.76 4036.73,1644.6 4052.9,1621.57 4075.93,1605.4 4092.1,1582.36 4117.04,1568.1 4133.2,1545.07 4156.24,1528.89 4172.41,1505.86 4193.54,1487.79 4209.7,1464.75 4232.74,1448.59 4248.91,1425.55 4271.95,1409.38 4288.11,1386.35 4311.14,1370.19 4327.32,1347.15 4350.35,1330.98 4366.52,1307.94 4389.55,1291.78 4407.62,1270.65 4430.66,1254.47 4446.83,1231.44 4469.86,1215.28 4484.12,1190.34 4507.16,1174.17 4523.33,1151.13 4546.37,1134.96 4562.53,1111.94 4585.56,1095.77 4601.74,1072.73 4624.77,1056.56 4640.93,1033.52 4663.97,1017.36 4680.14,994.33 4705.08,980.07 4721.25,957.03 4744.28,940.86 4760.44,917.82 4781.58,899.75 4797.74,876.71 4820.78,860.55 4836.95,837.52 4859.98,821.35 4876.14,798.31 4899.18,782.14 4915.35,759.11 4938.39,742.94 4954.55,719.91 4977.58,703.73 4995.67,682.61 5018.69,666.44 5034.86,643.4 5057.9,627.24 5072.16,602.29 5095.2,586.13 5111.36,563.1 5134.39,546.93 5150.56,523.89 5173.6,507.73 5189.77,484.69 5212.81,468.52 5228.97,445.49 5252,429.32 5268.17,406.29 5293.11,392.03 5309.28,368.99 5332.32,352.82 5348.48,329.79 5369.61,311.72 5385.77,288.68 5408.81,272.51 5424.98,249.47 5448.02,233.31 5464.18,210.28 5487.22,194.1 5508.73,176.41 5528.33,156.82 5536.27,137.22 "/>
   <polygon class="fil0" points="98.79,5613.79 132.65,5564.84 "/>
   <polygon class="fil0" points="78.12,5636.37 93.46,5633.39 "/>
   <polygon class="fil0" points="59.59,5682.45 72.77,5662.84 "/>
   <polygon class="fil0" points="41.29,5721.66 54.25,5702.05 "/>
   <polygon class="fil0" points="20.39,5800.06 38.09,5760.85 "/>
   <polygon class="fil0" points="1621.97,6013.54 1565.07,5947.01 "/>
   <polygon class="fil0" points="38.09,6133.28 20.39,6074.48 "/>
   <polygon class="fil0" points="1802.2,6188.65 1647.51,6039.08 "/>
   <polygon class="fil0" points="59.59,6192.08 72.77,6211.68 "/>
   <polygon class="fil0" points="97.72,6277.36 113.05,6290.09 "/>
   <polygon class="fil0" points="2131.6,6523.18 1823.92,6215.5 "/>
   <polygon class="fil0" points="2157.14,6548.71 2170.8,6562.38 "/>
   <polygon class="fil0" points="2331.43,6717.87 2196.35,6587.91 "/>
   <polygon class="fil0" points="2484.43,6875.99 2354.47,6740.91 "/>
   <polygon class="fil0" points="2664.65,7051.09 2509.96,6901.53 "/>
   <polygon class="fil0" points="2837.25,7228.81 2705.98,7097.54 "/>
   <polygon class="fil0" points="6370.81,172.98 6392.31,190.67 6410,212.19 6431.51,229.88 6451.11,249.47 6465.37,272.51 6451.11,249.47 6431.51,229.88 6410,212.19 6392.31,190.67 6370.81,172.98 6351.2,153.38 6336.94,136.13 6351.2,153.38 "/>
   <polygon class="fil0" points="3346.87,7738.45 3058.8,7450.37 "/>
   <polygon class="fil0" points="3372.42,7763.99 3386.08,7777.64 "/>
   <polygon class="fil0" points="3527.09,7913.56 3411.62,7803.19 "/>
   <polygon class="fil0" points="3699.69,8091.27 3569.73,7956.18 "/>
   <polygon class="fil0" points="3895.71,8287.28 3725.24,8116.8 "/>
   <polygon class="fil0" points="4248.53,8640.11 3921.26,8312.82 "/>
   <polygon class="fil0" points="4409.15,8795.6 4274.07,8665.64 "/>
   <polygon class="fil0" points="4562.15,8953.72 4432.19,8818.64 "/>
   <polygon class="fil0" points="4742.37,9128.82 4587.7,8979.26 "/>
   <polygon class="fil0" points="5071.78,9463.35 4764.11,9155.67 "/>
   <polygon class="fil0" points="5097.31,9488.89 5110.99,9502.55 "/>
   <polygon class="fil0" points="5271.61,9658.06 5136.52,9528.1 "/>
   <polygon class="fil0" points="5463.81,9855.37 5294.64,9681.09 "/>
   <polygon class="fil0" points="5604.83,9991.28 5489.35,9880.92 "/>
   <polygon class="fil0" points="5777.43,10168.99 5627.86,10014.31 "/>
   <polygon class="fil0" points="5973.43,10365.01 5802.96,10194.54 "/>
   <polygon class="fil0" points="6153.65,10540.12 5998.98,10390.55 "/>
   <polygon class="fil0" points="6326.25,10717.83 6176.69,10563.15 "/>
   <polygon class="fil0" points="6446.86,10843.88 6351.8,10743.36 "/>
   <polygon class="fil0" points="6470.71,10876.77 6487.96,10889.5 "/>
   <polygon class="fil0" points="6075.25,19.6 6134.06,33.86 "/>
   <polygon class="fil0" points="6563.38,11072.78 6549.12,11033.58 "/>
   <polygon class="fil0" points="6584.89,11209.99 6568.72,11111.98 "/>
   <polygon class="fil0" points="5761.63,32.78 5800.83,17.69 "/>
   <polygon class="fil0" points="6545.69,11445.2 6565.29,11386.4 "/>
   <polygon class="fil0" points="6529.51,11484.41 6543.77,11474.56 "/>
   <polygon class="fil0" points="6509.92,11523.6 6524.18,11504 "/>
   <polygon class="fil0" points="6489,11559 6504.58,11543.21 "/>
   <polygon class="fil0" points="6431.51,11641.21 6466.45,11608.88 "/>
   <polygon class="fil0" points="6143.91,39.21 6173.26,52.38 "/>
   <polygon class="fil0" points="3033.25,7424.83 2862.79,7254.35 "/>
   <polygon class="fil0" points="5702.83,53.47 5728.85,38.13 "/>
   <polygon class="fil0" points="6251.66,11796.12 6267.45,11780.55 "/>
   <polygon class="fil0" points="6212.47,11815.73 6232.07,11801.46 "/>
   <polygon class="fil0" points="6160.53,11838.3 6192.86,11821.06 "/>
   <polygon class="fil0" points="5722.43,11835.32 5647.84,11800.15 "/>
   <polygon class="fil0" points="6199.73,57.73 6228.25,74.37 "/>
   <polygon class="fil0" points="5742.03,11840.65 5781.24,11854.92 "/>
   <polygon class="fil0" points="5957.65,11876.43 6055.66,11861.34 "/>
   <polygon class="fil0" points="5663.63,73.07 5683.23,58.81 "/>
   <polygon class="fil0" points="6508.61,10939.38 6522.87,10955.17 "/>
  </g>
 </g>
</svg>
