<?xml version="1.0" encoding="UTF-8"?>
<!DOCTYPE svg PUBLIC "-//W3C//DTD SVG 1.1//EN" "http://www.w3.org/Graphics/SVG/1.1/DTD/svg11.dtd">
<!-- Creator: CorelDRAW 2019 (64-Bit) -->
<svg xmlns="http://www.w3.org/2000/svg" xml:space="preserve" width="57.1714mm" height="103.111mm" version="1.1" style="shape-rendering:geometricPrecision; text-rendering:geometricPrecision; image-rendering:optimizeQuality; fill-rule:evenodd; clip-rule:evenodd"
viewBox="0 0 1825.51 3292.37"
 xmlns:xlink="http://www.w3.org/1999/xlink"
 xmlns:xodm="http://www.corel.com/coreldraw/odm/2003">
 <defs>
  <style type="text/css">
   <![CDATA[
    .fil0 {fill:#88B693}
   ]]>
  </style>
 </defs>
 <g id="Слой_x0020_1">
  <metadata id="CorelCorpID_0Corel-Layer"/>
  <g id="_2401596547344">
   <path class="fil0" d="M125.03 9.39l-2.73 1.48 -8.14 3.65 -7.34 1.48 -7.91 4.61 -13.83 6.25 -3.53 4.25 -12.77 6.62 -3.95 4.78 -5.43 5.43 -5.96 4.9 -4.9 5.96 -5.96 4.9 -5.43 5.43 -3.95 6.39 -6.92 10.87 -3.59 5.43 -1.48 6.49 -3.95 4.38 -1.48 6.49 -4.31 9.81 -1.48 5.43 -3.95 10.87 -1.48 10.87 -4.48 27.17 0 10.87 5.43 32.6 0.53 5.43 3.95 10.87 1.48 13.57 4.31 1.67 1.48 6.49 3.59 5.43 1.48 5.43 4.32 4.38 6.55 11.93 14.82 16.3c28.75,36.71 942.32,944.09 1008.46,1010.22 39.86,39.86 323.88,317.18 335.18,340.07l-15.77 18.44 -7.08 7.08 -42.88 41.46 -6.02 7.44 -85.3 85.3 -7.08 7.08 -3.79 3.79 -7.08 7.08 -37.45 36.03 -6.39 6.39 -36.03 37.45 -7.08 7.08 -42.88 41.46 -11.46 12.88 -36.39 36.39 -7.08 7.08 -47.26 47.26 -7.08 7.08 -79.86 79.86 -7.08 7.08 -3.79 3.78 -7.08 7.08 -32.01 30.6 -11.82 11.82 -36.03 37.45 -7.08 7.08 -47.26 47.26 -7.08 7.08 -90.73 90.73 -7.08 7.08 -37.45 36.03 -6.39 6.39 -36.03 37.45 -7.08 7.08 -42.88 41.46 -6.03 7.44 -85.29 85.3 -7.08 7.08 -3.79 3.79 -7.08 7.08 -37.45 36.03 -6.39 6.39 -46.9 48.31 -7.08 7.08 -32.01 30.59 -6.39 6.39 -41.46 42.88 -7.08 7.08 -47.26 47.26 -7.08 7.08 -42.88 41.46 -6.39 6.39 -41.46 42.88 -7.08 7.08 -26.35 27.87 -6.61 9.12 -4.78 3.53 -5.73 13.83 -3.95 4.38 -7.28 21.74 -3.95 10.87 -1.48 10.87 -4.48 27.17 0 10.87 5.43 32.6 0 5.43 5.43 16.3 0.53 8.14 3.95 2.73 1.48 5.43 3.95 5.43 1.48 5.43 4.32 4.38 6.25 13.83 9.69 8.96 28.12 28.12 10.87 9.02 6.49 1.48 4.38 4.32 5.43 1.48 5.43 3.96 5.43 1.48 8.96 4.78 7.34 0.95 10.87 4.18 10.87 1.25 27.17 4.18 10.87 0 21.74 -4.18 16.3 -1.78 10.87 -3.96 5.43 -1.48 20.68 -9.75 11.92 -6.55 5.43 -3.96c9.99,-4.89 3.98,1.15 13.57,-6.91l1496.51 -1499.21 6.92 -10.87 4.25 -3.53 6.92 -18.21 3.65 -5.43 0.53 -5.43c0,-7.34 -1.56,-6.29 4.9,-2.73l0.53 -8.14 4.91 -16.3 1.48 -10.87 0.3 -48.9 -1.78 -16.3 -4.91 -10.87 -0.89 -10.87 -3.59 -5.43 -1.48 -5.43 -3.65 -5.43 -1.48 -7.34 -4.25 -0.83 -1.48 -5.43 -9.39 -13.57 -1.48 -5.43 -5.43 -4.91 -4.91 -5.96 -5.43 -5.43 -4.48 -6.39 -6.39 -4.48 -4.48 -6.39 -6.39 -4.48 -5.01 -5.86 -6.39 -4.48 -4.48 -6.39 -6.39 -4.48 -3.95 -6.92 -6.39 -4.48 -4.48 -6.38 -6.39 -4.48 -4.48 -6.39 -6.39 -4.48 -4.48 -6.39 -6.39 -4.48 -4.48 -6.39 -6.39 -4.48 -4.48 -6.39 -6.92 -3.95 -4.48 -6.39 -6.39 -4.48 -4.48 -6.39 -5.86 -5.01 -4.48 -6.39 -6.39 -4.48 -4.48 -6.39 -6.39 -4.48 -4.48 -6.38 -6.39 -4.48 -4.48 -6.39 -6.39 -4.48 -4.48 -6.39 -6.39 -4.48 -5.01 -5.86 -6.39 -4.48 -4.48 -6.39 -6.39 -4.48 -3.95 -6.92 -6.39 -4.48 -4.48 -6.39 -6.39 -4.48 -4.48 -6.39 -6.39 -4.48 -4.48 -6.39 -6.39 -4.48 -4.48 -6.39 -6.39 -4.48 -4.48 -6.39 -6.92 -3.95 -4.48 -6.38 -6.39 -4.48 -4.48 -6.39 -5.86 -5.01 -4.48 -6.39 -6.38 -4.48 -4.48 -6.39 -6.39 -4.48 -4.48 -6.39 -6.39 -4.48 -4.48 -6.39 -6.39 -4.48 -4.48 -6.39 -6.39 -4.48 -5.01 -5.86 -6.39 -4.48 -4.48 -6.39 -6.39 -4.48 -3.96 -6.91 -6.38 -4.48 -4.48 -6.39 -6.39 -4.48 -4.48 -6.39 -6.38 -4.48 -4.48 -6.39 -6.39 -4.48 -4.48 -6.39 -6.39 -4.48 -4.48 -6.39 -6.92 -3.95 -4.48 -6.39 -6.39 -4.48 -4.48 -6.38 -5.86 -5.01 -4.48 -6.39 -6.39 -4.48 -4.48 -6.39 -6.38 -4.48 -4.48 -6.39 -6.39 -4.48 -4.48 -6.39 -6.39 -4.48 -4.48 -6.39 -6.39 -4.48 -5.01 -5.86 -6.39 -4.48 -4.48 -6.39 -6.39 -4.48 -3.96 -6.91 -6.39 -4.48 -4.48 -6.38 -6.39 -4.48 -4.48 -6.39 -6.39 -4.48 -4.48 -6.39 -6.39 -4.48 -4.48 -6.39 -6.39 -4.48 -4.48 -6.39 -6.92 -3.95 -4.48 -6.39 -6.39 -4.48 -4.48 -6.39 -5.86 -5.01 -4.48 -6.39 -6.39 -4.48 -4.48 -6.39 -6.39 -4.48 -4.48 -6.38 -6.39 -4.48 -4.48 -6.39 -6.39 -4.48 -4.48 -6.39 -6.39 -4.48 -5.01 -5.86 -6.39 -4.48 -4.48 -6.39 -6.39 -4.48 -3.95 -6.91 -6.39 -4.48 -4.48 -6.39 -6.39 -4.48 -4.48 -6.38 -6.39 -4.48 -4.48 -6.39 -6.39 -4.48 -4.48 -6.38 -6.39 -4.48 -4.48 -6.39 -6.92 -3.95 -4.48 -6.39 -6.38 -4.48 -4.48 -6.39 -5.86 -5.01 -4.48 -6.39 -6.39 -4.48 -4.48 -6.39 -6.39 -4.48 -4.48 -6.39 -6.39 -4.48 -4.48 -6.39 -6.39 -4.48 -4.48 -6.39 -6.39 -4.48 -5.01 -5.86 -6.39 -4.48 -4.48 -6.39 -6.39 -4.48 -3.95 -6.91 -6.38 -4.48 -4.48 -6.39 -6.39 -4.48 -4.48 -6.39 -6.39 -4.48 -4.48 -6.39 -6.39 -4.48 -4.48 -6.39 -6.39 -4.48 -4.48 -6.39 -6.92 -3.95 -4.48 -6.39 -6.39 -4.48 -4.48 -6.38 -5.86 -5.01 -4.48 -6.39 -6.39 -4.48 -4.48 -6.39 -6.38 -4.48 -4.48 -6.39 -6.39 -4.48 -4.48 -6.39 -6.39 -4.48 -4.48 -6.39 -6.39 -4.48 -5.01 -5.86 -6.39 -4.48 -4.48 -6.39 -6.39 -4.48 -3.95 -6.91 -6.39 -4.48 -4.48 -6.39 -6.39 -4.48 -4.48 -6.39 -6.39 -4.48 -4.48 -6.39 -6.38 -4.48 -4.48 -6.39 -6.39 -4.48 -4.48 -6.39 -6.91 -3.95 -4.48 -6.39 -6.39 -4.48 -4.48 -6.39 -5.86 -5.01 -4.48 -6.39 -6.39 -4.48 -4.48 -6.39 -6.39 -4.48 -4.48 -6.39 -6.39 -4.48 -4.48 -6.39 -6.39 -4.48 -4.48 -6.39 -6.38 -4.48 -5.01 -5.86 -6.39 -4.48 -4.48 -6.39 -6.39 -4.48 -3.95 -6.91 -6.39 -4.48 -4.48 -6.39 -6.39 -4.48 -4.48 -6.38 -6.39 -4.48 -4.48 -6.39 -6.39 -4.48 -4.48 -6.39 -6.39 -4.48 -4.48 -6.39 -6.91 -3.95 -4.48 -6.39 -6.39 -4.48 -4.48 -6.39 -5.86 -5.01 -4.48 -6.39 -6.39 -4.48 -4.48 -6.39 -6.39 -4.48 -4.48 -6.39 -6.39 -4.48 -4.48 -6.38 -6.39 -4.48 -4.48 -6.39 -6.39 -4.48 -5.01 -5.86 -6.38 -4.48 -4.48 -6.39 -6.39 -4.48 -3.95 -6.92 -6.39 -4.48 -4.48 -6.39 -6.39 -4.48 -4.48 -6.39 -6.39 -4.48 -4.48 -6.39 -6.39 -4.48 -4.48 -6.39 -6.39 -4.48 -4.48 -6.38 -6.91 -3.95 -4.48 -6.39 -6.39 -4.48 -4.48 -6.39 -5.86 -5.01 -4.48 -6.39 -6.39 -4.48 -4.48 -6.39 -6.39 -4.48 -4.48 -6.39 -6.39 -4.48 -5.96 -4.9 -5.43 -5.43 -2.2 -5.43 -8.14 -1.48 -5.01 -4.9 -5.86 -4.48 -5.43 -1.48 -5.43 -3.95 -5.43 -1.48 -5.43 -3.95 -5.43 -1.48 -7.21 -4.25 -9.09 -1.48 -10.87 -4.18 -16.3 -1.25 -43.47 0 -16.3 1.78 -16.3 3.95z"/>
   <path class="fil0" d="M290.75 3253.81l92.84 -88.68c159.46,-159.46 1369.68,-1357.87 1403.66,-1410.53l-1496.51 1499.21z"/>
   <path class="fil0" d="M1821.34 1673.09c0.52,-1.11 1.39,-3.98 1.51,-3.36 0.4,2.17 6.49,-24.46 -1.21,-45.55l-0.3 48.9z"/>
   <path class="fil0" d="M201.1 3.65c-15.62,-5.05 -30.63,-4.68 -43.47,0l43.47 0z"/>
   <path class="fil0" d="M5.49 3151.09l-5.43 -32.6c0.14,5.25 -0.39,11.39 0.37,16.53 2.3,15.45 0.14,6.74 5.06,16.07z"/>
   <path class="fil0" d="M5.49 216.82l-5.43 -32.6c0.14,5.25 -0.39,11.38 0.37,16.53 2.3,15.45 0.14,6.74 5.06,16.07z"/>
   <polygon class="fil0" points="206.54,3288.19 184.8,3292.37 206.51,3291.94 "/>
   <path class="fil0" d="M135.9 3286.94l-10.87 -4.18c7.06,8.49 -4.29,7.69 10.87,4.18z"/>
   <path class="fil0" d="M81.56 3264.31l-10.87 -9.02c5.61,8.71 -5.41,3.12 10.87,9.02z"/>
   <path class="fil0" d="M277.18 3260.72l-5.43 3.96c7.54,3.75 5.43,4.61 5.43,-3.96z"/>
   <path class="fil0" d="M1814.42 1708.4c-6.46,-3.56 -4.9,-4.61 -4.9,2.73l4.9 -2.73z"/>
   <polygon class="fil0" points="266.31,25.69 260.88,21.74 "/>
   <polygon class="fil0" points="85.09,26.87 81.56,31.12 "/>
   <polygon class="fil0" points="277.6,31.65 282.61,36.56 277.6,31.65 271.74,27.17 "/>
   <polygon class="fil0" points="26.27,86.41 22.68,91.85 "/>
   <polygon class="fil0" points="21.2,98.34 17.25,102.71 "/>
   <polygon class="fil0" points="11.45,119.01 15.76,109.21 "/>
   <polygon class="fil0" points="6.02,135.32 9.97,124.45 "/>
   <polygon class="fil0" points="0.05,173.35 4.53,146.18 "/>
   <polygon class="fil0" points="9.97,233.13 6.02,222.26 "/>
   <polygon class="fil0" points="15.76,248.37 11.45,246.7 "/>
   <polygon class="fil0" points="20.83,260.3 17.25,254.86 "/>
   <polygon class="fil0" points="26.63,270.11 22.32,265.73 "/>
   <polygon class="fil0" points="48,298.33 33.19,282.03 "/>
   <polygon class="fil0" points="292.95,43.47 298.38,48.9 304.35,53.81 310.73,58.29 315.21,64.68 321.6,69.16 326.08,75.54 332.47,80.03 336.95,86.41 342.81,91.42 347.29,97.81 353.67,102.29 358.16,108.68 365.07,112.63 369.55,119.01 375.94,123.5 380.42,129.88 386.81,134.37 391.29,140.75 397.67,145.23 402.16,151.62 408.54,156.1 413.02,162.49 419.41,166.97 423.36,173.88 429.75,178.36 434.23,184.75 440.62,189.23 445.63,195.09 452.01,199.57 456.49,205.96 462.88,210.44 467.36,216.82 473.75,221.31 478.23,227.69 484.62,232.18 489.1,238.56 495.48,243.04 499.96,249.43 505.82,254.44 510.3,260.82 516.69,265.31 521.17,271.69 528.09,275.65 532.57,282.03 538.95,286.51 543.43,292.9 549.82,297.38 554.3,303.77 560.69,308.25 565.17,314.63 571.56,319.12 576.04,325.5 582.42,329.99 586.38,336.9 592.76,341.38 597.25,347.76 603.63,352.25 608.64,358.11 615.03,362.59 619.51,368.97 625.89,373.46 630.38,379.84 636.76,384.32 641.24,390.71 647.63,395.19 652.11,401.58 658.5,406.06 662.98,412.44 668.84,417.45 673.32,423.84 679.71,428.32 684.19,434.71 691.1,438.66 695.58,445.05 701.97,449.53 706.45,455.92 712.84,460.4 717.32,466.78 723.7,471.27 728.19,477.65 734.57,482.13 739.05,488.52 745.44,493 749.39,499.91 755.78,504.4 760.26,510.78 766.65,515.26 771.66,521.12 778.04,525.6 782.52,531.99 788.91,536.47 793.39,542.86 799.78,547.34 804.26,553.72 810.64,558.21 815.13,564.59 821.51,569.07 826,575.46 831.85,580.47 836.33,586.85 842.72,591.34 847.2,597.72 854.12,601.68 858.6,608.06 864.98,612.54 869.47,618.93 875.85,623.41 880.33,629.8 886.72,634.28 891.2,640.66 897.59,645.15 902.07,651.53 908.45,656.01 912.41,662.93 918.79,667.41 923.28,673.8 929.66,678.28 934.67,684.14 941.06,688.62 945.54,695 951.93,699.49 956.41,705.87 962.79,710.35 967.28,716.74 973.66,721.22 978.14,727.61 984.53,732.09 989.01,738.47 994.87,743.49 999.35,749.87 1005.73,754.35 1010.22,760.74 1017.13,764.69 1021.61,771.08 1028,775.56 1032.48,781.94 1038.87,786.43 1043.35,792.81 1049.73,797.29 1054.22,803.68 1060.6,808.16 1065.08,814.55 1071.47,819.03 1075.42,825.94 1081.81,830.43 1086.29,836.81 1092.68,841.29 1097.69,847.15 1104.07,851.63 1108.55,858.02 1114.94,862.5 1119.42,868.89 1125.81,873.37 1130.29,879.75 1136.67,884.23 1141.16,890.62 1147.54,895.1 1152.03,901.49 1157.88,906.5 1162.37,912.88 1168.75,917.37 1173.23,923.75 1180.15,927.71 1184.63,934.09 1191.01,938.57 1195.5,944.96 1201.88,949.44 1206.36,955.83 1212.75,960.31 1217.23,966.7 1223.62,971.18 1228.1,977.56 1234.48,982.04 1238.44,988.96 1244.83,993.44 1249.31,999.83 1255.69,1004.31 1260.7,1010.17 1267.09,1014.65 1271.57,1021.03 1277.95,1025.51 1282.44,1031.9 1288.82,1036.38 1293.31,1042.77 1299.69,1047.25 1304.17,1053.64 1310.56,1058.12 1315.04,1064.5 1320.9,1069.51 1325.38,1075.9 1331.77,1080.38 1336.25,1086.77 1343.16,1090.72 1347.64,1097.11 1354.03,1101.59 1358.51,1107.97 1364.9,1112.45 1369.38,1118.84 1375.76,1123.32 1380.25,1129.71 1386.63,1134.19 1391.12,1140.58 1397.5,1145.06 1401.45,1151.97 1407.84,1156.45 1412.32,1162.84 1418.71,1167.32 1423.72,1173.18 1430.1,1177.66 1434.59,1184.05 1440.97,1188.53 1445.45,1194.92 1451.84,1199.4 1456.32,1205.78 1462.71,1210.26 1467.19,1216.65 1473.57,1221.13 1478.06,1227.52 1483.91,1232.53 1488.39,1238.92 1494.78,1243.4 1499.26,1249.78 1506.18,1253.73 1510.66,1260.12 1517.05,1264.6 1521.53,1270.99 1527.91,1275.47 1532.39,1281.86 1538.78,1286.34 1543.26,1292.72 1549.65,1297.2 1554.13,1303.59 1560.52,1308.07 1564.47,1314.99 1570.85,1319.47 1575.34,1325.86 1581.72,1330.34 1586.73,1336.19 1593.12,1340.67 1597.6,1347.06 1603.99,1351.54 1608.47,1357.93 1614.85,1362.41 1619.34,1368.8 1625.72,1373.28 1630.2,1379.67 1636.59,1384.15 1641.07,1390.53 1646.93,1395.54 1651.41,1401.93 1657.8,1406.41 1662.28,1412.8 1669.19,1416.75 1673.67,1423.14 1680.06,1427.62 1684.54,1434 1690.93,1438.48 1695.41,1444.87 1701.8,1449.35 1706.28,1455.74 1712.66,1460.22 1717.14,1466.61 1723.53,1471.09 1727.48,1478 1733.87,1482.48 1738.35,1488.87 1744.74,1493.35 1749.75,1499.21 1756.13,1503.69 1760.61,1510.08 1767,1514.56 1771.48,1520.94 1776.92,1526.38 1781.82,1532.34 1787.25,1537.25 1781.82,1532.34 1776.92,1526.38 1771.48,1520.94 1767,1514.56 1760.61,1510.08 1756.13,1503.69 1749.75,1499.21 1744.74,1493.35 1738.35,1488.87 1733.87,1482.48 1727.48,1478 1723.53,1471.09 1717.14,1466.61 1712.66,1460.22 1706.28,1455.74 1701.8,1449.35 1695.41,1444.87 1690.93,1438.48 1684.54,1434 1680.06,1427.62 1673.67,1423.14 1669.19,1416.75 1662.28,1412.8 1657.8,1406.41 1651.41,1401.93 1646.93,1395.54 1641.07,1390.53 1636.59,1384.15 1630.2,1379.67 1625.72,1373.28 1619.34,1368.8 1614.85,1362.41 1608.47,1357.93 1603.99,1351.54 1597.6,1347.06 1593.12,1340.67 1586.73,1336.19 1581.72,1330.34 1575.34,1325.86 1570.85,1319.47 1564.47,1314.99 1560.52,1308.07 1554.13,1303.59 1549.65,1297.2 1543.26,1292.72 1538.78,1286.34 1532.39,1281.86 1527.91,1275.47 1521.53,1270.99 1517.05,1264.6 1510.66,1260.12 1506.18,1253.73 1499.26,1249.78 1494.78,1243.4 1488.39,1238.92 1483.91,1232.53 1478.06,1227.52 1473.57,1221.13 1467.19,1216.65 1462.71,1210.26 1456.32,1205.78 1451.84,1199.4 1445.45,1194.92 1440.97,1188.53 1434.59,1184.05 1430.1,1177.66 1423.72,1173.18 1418.71,1167.32 1412.32,1162.84 1407.84,1156.45 1401.45,1151.97 1397.5,1145.06 1391.12,1140.58 1386.63,1134.19 1380.25,1129.71 1375.76,1123.32 1369.38,1118.84 1364.9,1112.45 1358.51,1107.97 1354.03,1101.59 1347.64,1097.11 1343.16,1090.72 1336.25,1086.77 1331.77,1080.38 1325.38,1075.9 1320.9,1069.51 1315.04,1064.5 1310.56,1058.12 1304.17,1053.64 1299.69,1047.25 1293.31,1042.77 1288.82,1036.38 1282.44,1031.9 1277.95,1025.51 1271.57,1021.03 1267.09,1014.65 1260.7,1010.17 1255.69,1004.31 1249.31,999.83 1244.83,993.44 1238.44,988.96 1234.48,982.04 1228.1,977.56 1223.62,971.18 1217.23,966.7 1212.75,960.31 1206.36,955.83 1201.88,949.44 1195.5,944.96 1191.01,938.57 1184.63,934.09 1180.15,927.71 1173.23,923.75 1168.75,917.37 1162.37,912.88 1157.88,906.5 1152.03,901.49 1147.54,895.1 1141.16,890.62 1136.67,884.23 1130.29,879.75 1125.81,873.37 1119.42,868.89 1114.94,862.5 1108.55,858.02 1104.07,851.63 1097.69,847.15 1092.68,841.29 1086.29,836.81 1081.81,830.43 1075.42,825.94 1071.47,819.03 1065.08,814.55 1060.6,808.16 1054.22,803.68 1049.73,797.29 1043.35,792.81 1038.87,786.43 1032.48,781.94 1028,775.56 1021.61,771.08 1017.13,764.69 1010.22,760.74 1005.73,754.35 999.35,749.87 994.87,743.49 989.01,738.47 984.53,732.09 978.14,727.61 973.66,721.22 967.28,716.74 962.79,710.35 956.41,705.87 951.93,699.49 945.54,695 941.06,688.62 934.67,684.14 929.66,678.28 923.28,673.8 918.79,667.41 912.41,662.93 908.45,656.01 902.07,651.53 897.59,645.15 891.2,640.66 886.72,634.28 880.33,629.8 875.85,623.41 869.47,618.93 864.98,612.54 858.6,608.06 854.12,601.68 847.2,597.72 842.72,591.34 836.33,586.85 831.85,580.47 826,575.46 821.51,569.07 815.13,564.59 810.64,558.21 804.26,553.72 799.78,547.34 793.39,542.86 788.91,536.47 782.52,531.99 778.04,525.6 771.66,521.12 766.65,515.26 760.26,510.78 755.78,504.4 749.39,499.91 745.44,493 739.05,488.52 734.57,482.13 728.19,477.65 723.7,471.27 717.32,466.78 712.84,460.4 706.45,455.92 701.97,449.53 695.58,445.05 691.1,438.66 684.19,434.71 679.71,428.32 673.32,423.84 668.84,417.45 662.98,412.44 658.5,406.06 652.11,401.58 647.63,395.19 641.24,390.71 636.76,384.32 630.38,379.84 625.89,373.46 619.51,368.97 615.03,362.59 608.64,358.11 603.63,352.25 597.25,347.76 592.76,341.38 586.38,336.9 582.42,329.99 576.04,325.5 571.56,319.12 565.17,314.63 560.69,308.25 554.3,303.77 549.82,297.38 543.43,292.9 538.95,286.51 532.57,282.03 528.09,275.65 521.17,271.69 516.69,265.31 510.3,260.82 505.82,254.44 499.96,249.43 495.48,243.04 489.1,238.56 484.62,232.18 478.23,227.69 473.75,221.31 467.36,216.82 462.88,210.44 456.49,205.96 452.01,199.57 445.63,195.09 440.62,189.23 434.23,184.75 429.75,178.36 423.36,173.88 419.41,166.97 413.02,162.49 408.54,156.1 402.16,151.62 397.67,145.23 391.29,140.75 386.81,134.37 380.42,129.88 375.94,123.5 369.55,119.01 365.07,112.63 358.16,108.68 353.67,102.29 347.29,97.81 342.81,91.42 336.95,86.41 332.47,80.03 326.08,75.54 321.6,69.16 315.21,64.68 310.73,58.29 304.35,53.81 298.38,48.9 292.95,43.47 290.75,38.04 "/>
   <polygon class="fil0" points="1798.12,1556.25 1788.74,1542.68 "/>
   <polygon class="fil0" points="1803.86,1562.51 1799.6,1561.68 "/>
   <polygon class="fil0" points="1808.99,1575.28 1805.34,1569.85 "/>
   <polygon class="fil0" points="1814.06,1586.15 1810.47,1580.72 "/>
   <polygon class="fil0" points="1819.86,1607.89 1814.95,1597.02 "/>
   <polygon class="fil0" points="1375.87,1667.07 1391.64,1648.63 "/>
   <polygon class="fil0" points="1814.95,1700.26 1819.86,1683.96 "/>
   <polygon class="fil0" points="1325.91,1715.61 1368.79,1674.15 "/>
   <polygon class="fil0" points="1808.99,1716.56 1805.34,1722 "/>
   <polygon class="fil0" points="1798.42,1740.2 1794.17,1743.73 "/>
   <polygon class="fil0" points="1234.59,1808.35 1319.88,1723.06 "/>
   <polygon class="fil0" points="1227.51,1815.43 1223.72,1819.22 "/>
   <polygon class="fil0" points="1179.19,1862.32 1216.64,1826.3 "/>
   <polygon class="fil0" points="1136.78,1906.16 1172.81,1868.71 "/>
   <polygon class="fil0" points="1086.82,1954.7 1129.7,1913.24 "/>
   <polygon class="fil0" points="1038.97,2003.97 1075.36,1967.58 "/>
   <polygon class="fil0" points="59.4,47.95 53.44,52.86 48.53,58.82 42.57,63.73 37.14,69.16 33.19,75.54 37.14,69.16 42.57,63.73 48.53,58.82 53.44,52.86 59.4,47.95 64.83,42.52 68.79,37.74 64.83,42.52 "/>
   <polygon class="fil0" points="897.69,2145.25 977.55,2065.38 "/>
   <polygon class="fil0" points="890.61,2152.33 886.82,2156.11 "/>
   <polygon class="fil0" points="847.73,2193.79 879.74,2163.19 "/>
   <polygon class="fil0" points="799.88,2243.06 835.91,2205.61 "/>
   <polygon class="fil0" points="745.54,2297.39 792.8,2250.13 "/>
   <polygon class="fil0" points="647.74,2395.2 738.46,2304.47 "/>
   <polygon class="fil0" points="603.21,2438.31 640.66,2402.28 "/>
   <polygon class="fil0" points="560.8,2482.14 596.82,2444.7 "/>
   <polygon class="fil0" points="510.83,2530.69 553.71,2489.22 "/>
   <polygon class="fil0" points="419.52,2623.42 504.81,2538.13 "/>
   <polygon class="fil0" points="412.44,2630.5 408.65,2634.29 "/>
   <polygon class="fil0" points="364.12,2677.4 401.57,2641.37 "/>
   <polygon class="fil0" points="310.84,2732.1 357.73,2683.79 "/>
   <polygon class="fil0" points="271.74,2769.77 303.76,2739.18 "/>
   <polygon class="fil0" points="223.9,2819.04 265.36,2776.16 "/>
   <polygon class="fil0" points="169.56,2873.38 216.82,2826.12 "/>
   <polygon class="fil0" points="119.6,2921.92 162.48,2880.46 "/>
   <polygon class="fil0" points="71.75,2971.19 113.21,2928.31 "/>
   <polygon class="fil0" points="38.32,3006.13 64.67,2978.27 "/>
   <polygon class="fil0" points="31.7,3015.25 26.92,3018.78 "/>
   <polygon class="fil0" points="141.33,5.43 125.03,9.39 "/>
   <polygon class="fil0" points="6.02,3069.59 9.97,3058.72 "/>
   <polygon class="fil0" points="0.05,3107.62 4.53,3080.45 "/>
   <polygon class="fil0" points="228.27,9.09 217.41,4.9 "/>
   <polygon class="fil0" points="10.92,3172.83 5.49,3156.53 "/>
   <polygon class="fil0" points="15.4,3183.7 11.45,3180.97 "/>
   <polygon class="fil0" points="20.83,3194.56 16.88,3189.13 "/>
   <polygon class="fil0" points="26.63,3204.38 22.32,3200 "/>
   <polygon class="fil0" points="42.57,3227.17 32.89,3218.21 "/>
   <polygon class="fil0" points="122.3,10.87 114.16,14.52 "/>
   <polygon class="fil0" points="984.63,2058.31 1031.89,2011.05 "/>
   <polygon class="fil0" points="244.57,14.82 237.36,10.57 "/>
   <polygon class="fil0" points="92.43,3270.11 88.05,3265.8 "/>
   <polygon class="fil0" points="103.3,3275.55 97.86,3271.59 "/>
   <polygon class="fil0" points="117.69,3281.81 108.73,3277.03 "/>
   <polygon class="fil0" points="239.14,3280.98 259.82,3271.23 "/>
   <polygon class="fil0" points="106.83,16 98.92,20.62 "/>
   <polygon class="fil0" points="233.71,3282.46 222.84,3286.41 "/>
   <polygon class="fil0" points="173.93,3292.37 146.77,3288.19 "/>
   <polygon class="fil0" points="255.44,20.26 250.01,16.3 "/>
   <polygon class="fil0" points="21.2,3032.61 17.25,3036.98 "/>
  </g>
 </g>
</svg>
