<?xml version="1.0" encoding="UTF-8"?>
<!DOCTYPE svg PUBLIC "-//W3C//DTD SVG 1.1//EN" "http://www.w3.org/Graphics/SVG/1.1/DTD/svg11.dtd">
<!-- Creator: CorelDRAW 2019 (64-Bit) -->
<svg xmlns="http://www.w3.org/2000/svg" xml:space="preserve" width="57.1714mm" height="103.111mm" version="1.1" style="shape-rendering:geometricPrecision; text-rendering:geometricPrecision; image-rendering:optimizeQuality; fill-rule:evenodd; clip-rule:evenodd"
viewBox="0 0 6585077 11876427"
 xmlns:xlink="http://www.w3.org/1999/xlink"
 xmlns:xodm="http://www.corel.com/coreldraw/odm/2003">
 <defs>
  <style type="text/css">
   <![CDATA[
    .fil0 {fill:#2AA199}
   ]]>
  </style>
 </defs>
 <g id="Слой_x0020_1">
  <metadata id="CorelCorpID_0Corel-Layer"/>
  <g id="_2659946813600">
   <path class="fil0" d="M6134062 33863l9848 5344 29348 13177 26469 5344 28519 16644 49885 22553 12739 15342 46073 23866 14259 17243 19604 19604 21504 17692 17692 21516 21504 17692 19604 19592 14259 23036 24948 39208 12946 19604 5344 23405 14259 15791 5344 23416 15561 35384 5344 19604 14259 39208 5344 39196 16171 98008 0 39208 -19604 117600 -1912 19604 -14259 39208 -5344 48952 -15561 6036 -5344 23416 -12946 19604 -5344 19592 -15573 15791 -23635 43020 -53456 58800c-103721,132435 -3399185,3405555 -3637760,3644118 -143792,143792 -1168330,1144165 -1209081,1226727l56900 66529 25536 25547 154689 149563 21723 26849 307684 307684 25536 25536 13661 13661 25547 25536 135085 129959 23036 23036 129959 135085 25536 25536 154689 149563 41327 46453 131272 131272 25536 25536 170468 170480 25547 25536 288068 288080 25547 25547 13661 13649 25547 25547 115469 110367 42640 42629 129959 135085 25547 25536 170468 170480 25547 25536 327276 327288 25536 25536 135085 129959 23036 23036 129959 135085 25547 25536 154677 149563 21735 26849 307672 307684 25536 25536 13672 13661 25536 25547 135085 129959 23036 23036 169167 174281 25536 25547 115481 110355 23036 23036 149563 154677 25536 25547 170468 170468 25547 25547 154677 149563 23036 23036 149563 154677 25547 25536 95059 100519 23854 32884 17243 12728 20652 49885 14259 15791 26250 78404 14259 39208 5344 39196 16171 98008 0 39196 -19604 117612 0 19604 -19604 58800 -1912 29360 -14259 9848 -5333 19592 -14259 19604 -5344 19604 -15573 15791 -22553 49885 -34946 32331 -101429 101440 -39208 32550 -23416 5344 -15791 15573 -19592 5333 -19604 14271 -19604 5333 -32331 17243 -26469 3444 -39208 15077 -39196 4515 -98008 15089 -39208 0 -78404 -15089 -58800 -6416 -39208 -14271 -19604 -5333 -74591 -35165 -43009 -23635 -19604 -14271c-36040,-17657 -14363,4147 -48952,-24937l-5398272 -5408028 -24948 -39196 -15331 -12728 -24948 -65676 -13177 -19604 -1912 -19604c0,-26480 5609,-22691 -17692,-9848l-1900 -29348 -17703 -58800 -5333 -39208 -1083 -176412 6416 -58800 17703 -39208 3202 -39196 12958 -19604 5344 -19604 13177 -19604 5344 -26469 15342 -2983 5333 -19604 33863 -48952 5344 -19592 19592 -17703 17703 -21504 19604 -19604 16160 -23036 23036 -16160 16171 -23036 23036 -16171 18072 -21124 23036 -16171 16160 -23036 23036 -16160 14259 -24948 23036 -16171 16171 -23025 23036 -16171 16160 -23036 23036 -16171 16171 -23036 23036 -16160 16160 -23036 23036 -16171 16171 -23036 24948 -14259 16160 -23036 23036 -16160 16171 -23036 21124 -18072 16171 -23036 23036 -16171 16160 -23036 23036 -16171 16171 -23025 23036 -16171 16160 -23036 23036 -16171 16171 -23036 23036 -16160 18072 -21124 23036 -16171 16171 -23036 23036 -16160 14248 -24948 23036 -16171 16171 -23036 23036 -16160 16160 -23036 23036 -16171 16171 -23036 23036 -16160 16160 -23036 23036 -16171 16171 -23036 24948 -14259 16160 -23025 23036 -16171 16171 -23036 21124 -18072 16171 -23036 23025 -16171 16171 -23036 23036 -16160 16171 -23036 23036 -16171 16160 -23036 23036 -16160 16171 -23036 23036 -16171 18072 -21124 23036 -16171 16160 -23036 23036 -16171 14271 -24937 23025 -16171 16171 -23036 23036 -16160 16171 -23036 23025 -16171 16171 -23036 23036 -16160 16171 -23036 23036 -16171 16160 -23036 24948 -14259 16160 -23036 23036 -16171 16171 -23025 21124 -18072 16171 -23036 23036 -16171 16171 -23036 23025 -16160 16171 -23036 23036 -16171 16171 -23036 23036 -16160 16160 -23036 23036 -16171 18072 -21136 23036 -16160 16160 -23036 23036 -16171 14271 -24937 23036 -16171 16160 -23025 23036 -16171 16171 -23036 23036 -16171 16160 -23036 23036 -16160 16171 -23036 23036 -16171 16160 -23036 24948 -14259 16160 -23036 23036 -16171 16171 -23036 21124 -18060 16171 -23036 23036 -16171 16171 -23036 23036 -16171 16160 -23025 23036 -16171 16171 -23036 23036 -16171 16160 -23036 23036 -16160 18072 -21136 23036 -16160 16171 -23036 23036 -16171 14259 -24937 23036 -16171 16160 -23036 23036 -16171 16171 -23025 23036 -16171 16160 -23036 23036 -16171 16171 -23025 23036 -16171 16160 -23036 24948 -14259 16171 -23036 23025 -16160 16171 -23036 21124 -18083 16171 -23036 23036 -16160 16160 -23036 23036 -16171 16171 -23036 23036 -16160 16160 -23036 23036 -16171 16171 -23036 23036 -16160 18072 -21136 23036 -16160 16171 -23036 23036 -16171 14259 -24937 23025 -16171 16171 -23036 23036 -16171 16171 -23036 23036 -16160 16160 -23036 23036 -16171 16171 -23036 23036 -16160 16160 -23036 24948 -14259 16171 -23036 23036 -16171 16160 -23025 21124 -18083 16171 -23036 23036 -16160 16171 -23036 23025 -16171 16171 -23036 23036 -16160 16171 -23036 23036 -16171 16160 -23036 23036 -16160 18072 -21136 23036 -16160 16171 -23036 23036 -16171 14259 -24937 23036 -16171 16160 -23036 23036 -16160 16171 -23036 23036 -16171 16171 -23036 23025 -16160 16171 -23036 23036 -16171 16171 -23036 24937 -14259 16160 -23036 23036 -16171 16171 -23036 21136 -18072 16160 -23036 23036 -16160 16171 -23036 23036 -16171 16160 -23036 23036 -16160 16171 -23036 23036 -16171 16171 -23036 23025 -16160 18072 -21136 23036 -16171 16171 -23036 23036 -16160 14259 -24937 23036 -16171 16171 -23036 23036 -16171 16160 -23025 23036 -16171 16171 -23036 23036 -16171 16160 -23036 23036 -16160 16171 -23036 24937 -14259 16171 -23036 23036 -16171 16160 -23036 21136 -18072 16160 -23036 23036 -16160 16171 -23036 23036 -16171 16160 -23036 23036 -16171 16171 -23025 23036 -16171 16160 -23036 23036 -16171 18083 -21124 23025 -16171 16171 -23036 23036 -16160 14259 -24948 23036 -16160 16160 -23036 23036 -16171 16171 -23036 23036 -16160 16171 -23036 23036 -16171 16160 -23036 23036 -16171 16171 -23025 24937 -14259 16171 -23036 23036 -16171 16160 -23036 21136 -18072 16160 -23036 23036 -16171 16171 -23036 23036 -16160 16160 -23036 23036 -16171 21516 -17692 19604 -19592 7936 -19604 29348 -5344 18083 -17692 21124 -16171 19592 -5344 19604 -14259 19604 -5333 19604 -14259 19604 -5344 26019 -15342 32781 -5344 39196 -15089 58812 -4515 156808 0 58800 6427 58812 14259z"/>
   <path class="fil0" d="M5536271 11737311l-334901 -319882c-575216,-575216 -4940772,-4898166 -5063371,-5088146l5398272 5408028z"/>
   <path class="fil0" d="M15054 6035271c-1866,-4020 -5022,-14375 -5437,-12106 -1440,7832 -23416,-88240 4354,-164306l1083 176412z"/>
   <path class="fil0" d="M5859642 13177c56335,-18199 110505,-16897 156808,0l-156808 0z"/>
   <path class="fil0" d="M6565289 11366795l19604 -117612c-495,18924 1405,41074 -1348,59629 -8282,55736 -518,24303 -18256,57982z"/>
   <path class="fil0" d="M6565289 782139l19604 -117600c-495,18924 1405,41062 -1348,59618 -8282,55748 -518,24315 -18256,57982z"/>
   <polygon class="fil0" points="5840038,11861338 5918442,11876427 5840131,11874849 "/>
   <path class="fil0" d="M6094854 11856823l39208 -15077c-25455,30627 15457,27724 -39208,15077z"/>
   <path class="fil0" d="M6290870 11775205l39208 -32550c-20237,31410 19500,11265 -39208,32550z"/>
   <path class="fil0" d="M5585223 11762247l19604 14271c-27183,13522 -19604,16644 -19604,-14271z"/>
   <path class="fil0" d="M39991 6162627c23301,-12843 17692,-16632 17692,9848l-17692 -9848z"/>
   <polygon class="fil0" points="5624419,92663 5644023,78404 "/>
   <polygon class="fil0" points="6278131,96925 6290870,112267 "/>
   <polygon class="fil0" points="5583702,114179 5565619,131871 5583702,114179 5604827,98008 "/>
   <polygon class="fil0" points="6490318,311715 6503264,331319 "/>
   <polygon class="fil0" points="6508608,354724 6522868,370515 "/>
   <polygon class="fil0" points="6543773,429315 6528212,393932 "/>
   <polygon class="fil0" points="6563377,488127 6549118,448919 "/>
   <polygon class="fil0" points="6584893,625331 6568722,527323 "/>
   <polygon class="fil0" points="6549118,840950 6563377,801743 "/>
   <polygon class="fil0" points="6528212,895938 6543773,889902 "/>
   <polygon class="fil0" points="6509922,938958 6522868,919354 "/>
   <polygon class="fil0" points="6489005,974342 6504577,958550 "/>
   <polygon class="fil0" points="6411914,1076162 6465369,1017362 "/>
   <polygon class="fil0" points="5528335,156819 5508731,176412 5487215,194104 5464179,210275 5448019,233311 5424983,249471 5408811,272507 5385775,288679 5369615,311715 5348479,329787 5332319,352823 5309283,368995 5293111,392031 5268175,406291 5252003,429315 5228967,445487 5212807,468523 5189771,484695 5173599,507731 5150563,523891 5134392,546927 5111355,563098 5095195,586135 5072159,602295 5057900,627243 5034863,643403 5018692,666439 4995667,682611 4977584,703735 4954548,719906 4938388,742943 4915351,759114 4899180,782139 4876144,798310 4859984,821346 4836947,837518 4820776,860554 4797740,876714 4781580,899750 4760444,917822 4744284,940859 4721248,957030 4705076,980066 4680140,994326 4663968,1017362 4640932,1033522 4624772,1056558 4601736,1072730 4585564,1095766 4562528,1111937 4546368,1134962 4523332,1151134 4507160,1174170 4484124,1190341 4469865,1215278 4446828,1231438 4430657,1254474 4407621,1270646 4389549,1291782 4366524,1307941 4350352,1330978 4327316,1347149 4311145,1370185 4288108,1386345 4271948,1409382 4248912,1425553 4232741,1448589 4209704,1464749 4193545,1487786 4172409,1505858 4156237,1528894 4133201,1545065 4117041,1568102 4092104,1582361 4075933,1605397 4052897,1621569 4036725,1644605 4013700,1660765 3997529,1683801 3974493,1699973 3958321,1723009 3935285,1739169 3919125,1762205 3896089,1778377 3881829,1803313 3858793,1819485 3842622,1842521 3819585,1858681 3801513,1879817 3778477,1895977 3762317,1919013 3739281,1935184 3723109,1958221 3700073,1974381 3683902,1997417 3660877,2013588 3644706,2036625 3621669,2052785 3605498,2075821 3584374,2093904 3568214,2116929 3545177,2133100 3529006,2156137 3504058,2170396 3487898,2193432 3464861,2209592 3448690,2232629 3425654,2248800 3409494,2271836 3386458,2287996 3370286,2311033 3347250,2327204 3331078,2350240 3308054,2366412 3293794,2391348 3270758,2407520 3254586,2430556 3231550,2446716 3213478,2467852 3190442,2484012 3174270,2507048 3151234,2523220 3135074,2546256 3112038,2562416 3095867,2585452 3072830,2601624 3056670,2624660 3033634,2640820 3017463,2663856 2996338,2681939 2980167,2704976 2957142,2721136 2940971,2744172 2916022,2758431 2899863,2781468 2876826,2797639 2860655,2820664 2837619,2836835 2821459,2859872 2798422,2876043 2782251,2899068 2759215,2915239 2743055,2938275 2720018,2954447 2705759,2979384 2682723,2995555 2666551,3018591 2643515,3034751 2625443,3055887 2602407,3072047 2586247,3095083 2563211,3111255 2547039,3134291 2524003,3150463 2507843,3173487 2484807,3189659 2468635,3212695 2445599,3228866 2429427,3251903 2408303,3269963 2392132,3292999 2369095,3309171 2352936,3332207 2327987,3346467 2311827,3369503 2288791,3385674 2272620,3408711 2249583,3424870 2233423,3447907 2210387,3464078 2194216,3487114 2171179,3503286 2155019,3526311 2131983,3542482 2117712,3567419 2094676,3583590 2078516,3606627 2055480,3622787 2037408,3643922 2014372,3660094 1998212,3683130 1975175,3699290 1959004,3722326 1935968,3738498 1919796,3761534 1896771,3777694 1880600,3800730 1857564,3816902 1841392,3839938 1820268,3858010 1804097,3881035 1781060,3897206 1764900,3920242 1739952,3934502 1723792,3957538 1700756,3973709 1684584,3996746 1661548,4012906 1645377,4035942 1622352,4052113 1606180,4075150 1583144,4091310 1566973,4114346 1543948,4130517 1529677,4155454 1506641,4171626 1490481,4194662 1467445,4210833 1449373,4231958 1426336,4248129 1410165,4271165 1387129,4287325 1370969,4310361 1347932,4326533 1331761,4349569 1308725,4365729 1292553,4388765 1269529,4404937 1253357,4427973 1232233,4446045 1216061,4469081 1193025,4485253 1176865,4508277 1151917,4522537 1135745,4545573 1112709,4561745 1096549,4584781 1073513,4600941 1057341,4623977 1034305,4640149 1018145,4663185 995109,4679345 978938,4702381 955901,4718553 941653,4743501 918617,4759661 902446,4782697 879409,4798868 861337,4819993 838301,4836153 822130,4859189 799093,4875360 782934,4898397 759897,4914568 743726,4937593 720690,4953764 704530,4976801 681493,4992972 665322,5016008 644198,5034080 628026,5057116 604990,5073276 588830,5096313 563882,5110572 547710,5133608 524674,5149780 508514,5172816 485478,5188976 469306,5212012 446270,5228184 430110,5251220 407074,5267391 390902,5290416 367866,5306588 353607,5331536 330570,5347696 314410,5370732 291374,5386904 273302,5408028 250266,5424199 234095,5447236 211058,5463396 194898,5486432 175294,5506036 157591,5527540 137999,5545243 157591,5527540 175294,5506036 194898,5486432 211058,5463396 234095,5447236 250266,5424199 273302,5408028 291374,5386904 314410,5370732 330570,5347696 353607,5331536 367866,5306588 390902,5290416 407074,5267391 430110,5251220 446270,5228184 469306,5212012 485478,5188976 508514,5172816 524674,5149780 547710,5133608 563882,5110572 588830,5096313 604990,5073276 628026,5057116 644198,5034080 665322,5016008 681493,4992972 704530,4976801 720690,4953764 743726,4937593 759897,4914568 782934,4898397 799093,4875360 822130,4859189 838301,4836153 861337,4819993 879409,4798868 902446,4782697 918617,4759661 941653,4743501 955901,4718553 978938,4702381 995109,4679345 1018145,4663185 1034305,4640149 1057341,4623977 1073513,4600941 1096549,4584781 1112709,4561745 1135745,4545573 1151917,4522537 1176865,4508277 1193025,4485253 1216061,4469081 1232233,4446045 1253357,4427973 1269529,4404937 1292553,4388765 1308725,4365729 1331761,4349569 1347932,4326533 1370969,4310361 1387129,4287325 1410165,4271165 1426336,4248129 1449373,4231958 1467445,4210833 1490481,4194662 1506641,4171626 1529677,4155454 1543948,4130517 1566973,4114346 1583144,4091310 1606180,4075150 1622352,4052113 1645377,4035942 1661548,4012906 1684584,3996746 1700756,3973709 1723792,3957538 1739952,3934502 1764900,3920242 1781060,3897206 1804097,3881035 1820268,3858010 1841392,3839938 1857564,3816902 1880600,3800730 1896771,3777694 1919796,3761534 1935968,3738498 1959004,3722326 1975175,3699290 1998212,3683130 2014372,3660094 2037408,3643922 2055480,3622787 2078516,3606627 2094676,3583590 2117712,3567419 2131983,3542482 2155019,3526311 2171179,3503286 2194216,3487114 2210387,3464078 2233423,3447907 2249583,3424870 2272620,3408711 2288791,3385674 2311827,3369503 2327987,3346467 2352936,3332207 2369095,3309171 2392132,3292999 2408303,3269963 2429427,3251903 2445599,3228866 2468635,3212695 2484807,3189659 2507843,3173487 2524003,3150463 2547039,3134291 2563211,3111255 2586247,3095083 2602407,3072047 2625443,3055887 2643515,3034751 2666551,3018591 2682723,2995555 2705759,2979384 2720018,2954447 2743055,2938275 2759215,2915239 2782251,2899068 2798422,2876043 2821459,2859872 2837619,2836835 2860655,2820664 2876826,2797639 2899863,2781468 2916022,2758431 2940971,2744172 2957142,2721136 2980167,2704976 2996338,2681939 3017463,2663856 3033634,2640820 3056670,2624660 3072830,2601624 3095867,2585452 3112038,2562416 3135074,2546256 3151234,2523220 3174270,2507048 3190442,2484012 3213478,2467852 3231550,2446716 3254586,2430556 3270758,2407520 3293794,2391348 3308054,2366412 3331078,2350240 3347250,2327204 3370286,2311033 3386458,2287996 3409494,2271836 3425654,2248800 3448690,2232629 3464861,2209592 3487898,2193432 3504058,2170396 3529006,2156137 3545177,2133100 3568214,2116929 3584374,2093904 3605498,2075821 3621669,2052785 3644706,2036625 3660877,2013588 3683902,1997417 3700073,1974381 3723109,1958221 3739281,1935184 3762317,1919013 3778477,1895977 3801513,1879817 3819585,1858681 3842622,1842521 3858793,1819485 3881829,1803313 3896089,1778377 3919125,1762205 3935285,1739169 3958321,1723009 3974493,1699973 3997529,1683801 4013700,1660765 4036725,1644605 4052897,1621569 4075933,1605397 4092104,1582361 4117041,1568102 4133201,1545065 4156237,1528894 4172409,1505858 4193545,1487786 4209704,1464749 4232741,1448589 4248912,1425553 4271948,1409382 4288108,1386345 4311145,1370185 4327316,1347149 4350352,1330978 4366524,1307941 4389549,1291782 4407621,1270646 4430657,1254474 4446828,1231438 4469865,1215278 4484124,1190341 4507160,1174170 4523332,1151134 4546368,1134962 4562528,1111937 4585564,1095766 4601736,1072730 4624772,1056558 4640932,1033522 4663968,1017362 4680140,994326 4705076,980066 4721248,957030 4744284,940859 4760444,917822 4781580,899750 4797740,876714 4820776,860554 4836947,837518 4859984,821346 4876144,798310 4899180,782139 4915351,759114 4938388,742943 4954548,719906 4977584,703735 4995667,682611 5018692,666439 5034863,643403 5057900,627243 5072159,602295 5095195,586135 5111355,563098 5134392,546927 5150563,523891 5173599,507731 5189771,484695 5212807,468523 5228967,445487 5252003,429315 5268175,406291 5293111,392031 5309283,368995 5332319,352823 5348479,329787 5369615,311715 5385775,288679 5408811,272507 5424983,249471 5448019,233311 5464179,210275 5487215,194104 5508731,176412 5528335,156819 5536271,137216 "/>
   <polygon class="fil0" points="98791,5613788 132654,5564836 "/>
   <polygon class="fil0" points="78116,5636375 93458,5633392 "/>
   <polygon class="fil0" points="59595,5682447 72772,5662844 "/>
   <polygon class="fil0" points="41293,5721655 54250,5702051 "/>
   <polygon class="fil0" points="20387,5800059 38090,5760851 "/>
   <polygon class="fil0" points="1621972,6013536 1565072,5947007 "/>
   <polygon class="fil0" points="38090,6133279 20387,6074479 "/>
   <polygon class="fil0" points="1802196,6188646 1647508,6039083 "/>
   <polygon class="fil0" points="59595,6192079 72772,6211683 "/>
   <polygon class="fil0" points="97720,6277359 113050,6290086 "/>
   <polygon class="fil0" points="2131603,6523179 1823919,6215495 "/>
   <polygon class="fil0" points="2157139,6548715 2170799,6562375 "/>
   <polygon class="fil0" points="2331431,6717870 2196347,6587911 "/>
   <polygon class="fil0" points="2484427,6875991 2354467,6740906 "/>
   <polygon class="fil0" points="2664651,7051089 2509962,6901526 "/>
   <polygon class="fil0" points="2837250,7228814 2705978,7097542 "/>
   <polygon class="fil0" points="6370806,172979 6392310,190671 6410002,212187 6431506,229879 6451110,249471 6465369,272507 6451110,249471 6431506,229879 6410002,212187 6392310,190671 6370806,172979 6351202,153375 6336942,136133 6351202,153375 "/>
   <polygon class="fil0" points="3346870,7738445 3058801,7450365 "/>
   <polygon class="fil0" points="3372417,7763993 3386077,7777642 "/>
   <polygon class="fil0" points="3527094,7913556 3411625,7803189 "/>
   <polygon class="fil0" points="3699693,8091269 3569734,7956184 "/>
   <polygon class="fil0" points="3895709,8287284 3725240,8116805 "/>
   <polygon class="fil0" points="4248532,8640108 3921256,8312820 "/>
   <polygon class="fil0" points="4409152,8795603 4274068,8665644 "/>
   <polygon class="fil0" points="4562148,8953724 4432189,8818639 "/>
   <polygon class="fil0" points="4742372,9128822 4587695,8979259 "/>
   <polygon class="fil0" points="5071779,9463355 4764107,9155671 "/>
   <polygon class="fil0" points="5097315,9488891 5110987,9502551 "/>
   <polygon class="fil0" points="5271607,9658057 5136522,9528098 "/>
   <polygon class="fil0" points="5463810,9855374 5294643,9681094 "/>
   <polygon class="fil0" points="5604827,9991277 5489346,9880922 "/>
   <polygon class="fil0" points="5777426,10168990 5627863,10014313 "/>
   <polygon class="fil0" points="5973430,10365006 5802962,10194537 "/>
   <polygon class="fil0" points="6153654,10540116 5998977,10390553 "/>
   <polygon class="fil0" points="6326253,10717829 6176690,10563152 "/>
   <polygon class="fil0" points="6446860,10843884 6351801,10743365 "/>
   <polygon class="fil0" points="6470714,10876768 6487956,10889495 "/>
   <polygon class="fil0" points="6075250,19604 6134062,33863 "/>
   <polygon class="fil0" points="6563377,11072783 6549118,11033576 "/>
   <polygon class="fil0" points="6584893,11209987 6568722,11111980 "/>
   <polygon class="fil0" points="5761635,32781 5800831,17692 "/>
   <polygon class="fil0" points="6545685,11445199 6565289,11386399 "/>
   <polygon class="fil0" points="6529514,11484407 6543773,11474559 "/>
   <polygon class="fil0" points="6509922,11523603 6524181,11503999 "/>
   <polygon class="fil0" points="6489005,11558998 6504577,11543207 "/>
   <polygon class="fil0" points="6431506,11641215 6466452,11608883 "/>
   <polygon class="fil0" points="6143910,39208 6173258,52384 "/>
   <polygon class="fil0" points="3033254,7424830 2862786,7254350 "/>
   <polygon class="fil0" points="5702834,53467 5728854,38125 "/>
   <polygon class="fil0" points="6251662,11796122 6267453,11780550 "/>
   <polygon class="fil0" points="6212466,11815726 6232070,11801455 "/>
   <polygon class="fil0" points="6160530,11838302 6192862,11821059 "/>
   <polygon class="fil0" points="5722427,11835318 5647835,11800153 "/>
   <polygon class="fil0" points="6199727,57729 6228246,74373 "/>
   <polygon class="fil0" points="5742031,11840651 5781238,11854922 "/>
   <polygon class="fil0" points="5957650,11876427 6055658,11861338 "/>
   <polygon class="fil0" points="5663627,73071 5683231,58812 "/>
   <polygon class="fil0" points="6508608,10939380 6522868,10955172 "/>
  </g>
 </g>
</svg>
