<?xml version="1.0" encoding="UTF-8"?>
<!DOCTYPE svg PUBLIC "-//W3C//DTD SVG 1.1//EN" "http://www.w3.org/Graphics/SVG/1.1/DTD/svg11.dtd">
<!-- Creator: CorelDRAW 2019 (64-Bit) -->
<svg xmlns="http://www.w3.org/2000/svg" xml:space="preserve" width="57.1714mm" height="103.111mm" version="1.1" style="shape-rendering:geometricPrecision; text-rendering:geometricPrecision; image-rendering:optimizeQuality; fill-rule:evenodd; clip-rule:evenodd"
viewBox="0 0 6279.74 11325.75"
 xmlns:xlink="http://www.w3.org/1999/xlink"
 xmlns:xodm="http://www.corel.com/coreldraw/odm/2003">
 <defs>
  <style type="text/css">
   <![CDATA[
    .fil0 {fill:#272636}
    .fil1 {fill:#63626E}
   ]]>
  </style>
 </defs>
 <g id="Слой_x0020_1">
  <metadata id="CorelCorpID_0Corel-Layer"/>
  <g id="_2401432704960">
   <path class="fil0" d="M430.1 32.29l-9.39 5.1 -27.99 12.57 -25.24 5.1 -27.2 15.87 -47.57 21.51 -12.15 14.63 -43.94 22.76 -13.6 16.44 -18.69 18.69 -20.51 16.87 -16.87 20.52 -20.51 16.87 -18.69 18.68 -13.6 21.97 -23.79 37.39 -12.35 18.69 -5.1 22.32 -13.6 15.06 -5.1 22.33 -14.84 33.74 -5.1 18.69 -13.6 37.39 -5.1 37.38 -15.42 93.46 0 37.39 18.69 112.15 1.82 18.69 13.6 37.39 5.1 46.68 14.84 5.76 5.1 22.33 12.35 18.69 5.1 18.68 14.85 15.06 22.54 41.03 50.98 56.07c98.91,126.29 3241.57,3247.65 3469.09,3475.15 137.13,137.13 1114.16,1091.11 1153.02,1169.85l-54.26 63.44 -24.35 24.36 -147.52 142.63 -20.72 25.6 -293.42 293.42 -24.35 24.35 -13.03 13.03 -24.36 24.35 -128.82 123.93 -21.97 21.97 -123.93 128.82 -24.35 24.35 -147.52 142.63 -39.41 44.3 -125.19 125.19 -24.35 24.35 -162.56 162.58 -24.36 24.35 -274.71 274.72 -24.36 24.36 -13.03 13.02 -24.36 24.36 -110.12 105.25 -40.66 40.65 -123.93 128.82 -24.36 24.35 -162.56 162.58 -24.36 24.35 -312.1 312.11 -24.35 24.35 -128.82 123.93 -21.97 21.97 -123.93 128.82 -24.36 24.35 -147.51 142.63 -20.73 25.6 -293.41 293.42 -24.35 24.35 -13.04 13.03 -24.35 24.36 -128.82 123.93 -21.97 21.97 -161.32 166.2 -24.35 24.36 -110.13 105.24 -21.97 21.97 -142.63 147.51 -24.35 24.36 -162.56 162.56 -24.36 24.36 -147.51 142.63 -21.97 21.97 -142.63 147.51 -24.36 24.35 -90.65 95.86 -22.75 31.36 -16.44 12.14 -19.69 47.57 -13.6 15.06 -25.03 74.77 -13.6 37.39 -5.1 37.38 -15.42 93.46 0 37.38 18.69 112.16 0 18.69 18.69 56.07 1.82 28 13.6 9.39 5.09 18.68 13.6 18.69 5.1 18.69 14.85 15.06 21.51 47.57 33.33 30.83 96.73 96.74 37.39 31.04 22.33 5.1 15.06 14.85 18.68 5.09 18.69 13.61 18.69 5.09 30.83 16.44 25.24 3.28 37.39 14.38 37.38 4.31 93.46 14.39 37.39 0 74.77 -14.39 56.07 -6.12 37.39 -13.61 18.69 -5.09 71.13 -33.53 41.01 -22.54 18.69 -13.61c34.37,-16.84 13.7,3.95 46.68,-23.78l5147.97 -5157.27 23.79 -37.38 14.62 -12.14 23.79 -62.63 12.57 -18.69 1.82 -18.69c0,-25.25 -5.35,-21.64 16.87,-9.39l1.81 -27.99 16.88 -56.07 5.09 -37.39 1.03 -168.23 -6.12 -56.07 -16.88 -37.39 -3.05 -37.38 -12.36 -18.69 -5.1 -18.69 -12.57 -18.69 -5.1 -25.24 -14.63 -2.84 -5.09 -18.69 -32.29 -46.68 -5.1 -18.68 -18.68 -16.88 -16.88 -20.51 -18.69 -18.69 -15.41 -21.97 -21.97 -15.41 -15.42 -21.97 -21.97 -15.42 -17.23 -20.14 -21.97 -15.42 -15.41 -21.97 -21.97 -15.41 -13.6 -23.79 -21.97 -15.42 -15.42 -21.96 -21.97 -15.42 -15.41 -21.97 -21.97 -15.42 -15.42 -21.97 -21.97 -15.41 -15.41 -21.97 -21.97 -15.42 -15.42 -21.97 -23.79 -13.6 -15.41 -21.97 -21.97 -15.41 -15.42 -21.97 -20.14 -17.23 -15.42 -21.97 -21.97 -15.42 -15.41 -21.97 -21.97 -15.42 -15.42 -21.96 -21.97 -15.42 -15.41 -21.97 -21.97 -15.42 -15.42 -21.97 -21.97 -15.41 -17.23 -20.14 -21.97 -15.42 -15.42 -21.97 -21.97 -15.41 -13.59 -23.79 -21.97 -15.42 -15.42 -21.97 -21.97 -15.41 -15.41 -21.97 -21.97 -15.42 -15.42 -21.97 -21.97 -15.41 -15.41 -21.97 -21.97 -15.42 -15.42 -21.97 -23.79 -13.6 -15.41 -21.96 -21.97 -15.42 -15.42 -21.97 -20.14 -17.23 -15.42 -21.97 -21.96 -15.42 -15.42 -21.97 -21.97 -15.41 -15.42 -21.97 -21.97 -15.42 -15.41 -21.97 -21.97 -15.41 -15.42 -21.97 -21.97 -15.42 -17.23 -20.14 -21.97 -15.42 -15.41 -21.97 -21.97 -15.42 -13.61 -23.78 -21.96 -15.42 -15.42 -21.97 -21.97 -15.41 -15.42 -21.97 -21.96 -15.42 -15.42 -21.97 -21.97 -15.41 -15.42 -21.97 -21.97 -15.42 -15.41 -21.97 -23.79 -13.6 -15.41 -21.97 -21.97 -15.42 -15.42 -21.96 -20.14 -17.23 -15.42 -21.97 -21.97 -15.42 -15.42 -21.97 -21.96 -15.41 -15.42 -21.97 -21.97 -15.42 -15.42 -21.97 -21.97 -15.41 -15.41 -21.97 -21.97 -15.42 -17.23 -20.16 -21.97 -15.41 -15.41 -21.97 -21.97 -15.42 -13.61 -23.78 -21.97 -15.42 -15.41 -21.96 -21.97 -15.42 -15.42 -21.97 -21.97 -15.42 -15.41 -21.97 -21.97 -15.41 -15.42 -21.97 -21.97 -15.42 -15.41 -21.97 -23.79 -13.6 -15.41 -21.97 -21.97 -15.42 -15.42 -21.97 -20.14 -17.22 -15.42 -21.97 -21.97 -15.42 -15.42 -21.97 -21.97 -15.42 -15.41 -21.96 -21.97 -15.42 -15.42 -21.97 -21.97 -15.42 -15.41 -21.97 -21.97 -15.41 -17.23 -20.16 -21.97 -15.41 -15.42 -21.97 -21.97 -15.42 -13.6 -23.78 -21.97 -15.42 -15.41 -21.97 -21.97 -15.42 -15.42 -21.96 -21.97 -15.42 -15.41 -21.97 -21.97 -15.42 -15.42 -21.96 -21.97 -15.42 -15.41 -21.97 -23.79 -13.6 -15.42 -21.97 -21.96 -15.41 -15.42 -21.97 -20.14 -17.24 -15.42 -21.97 -21.97 -15.41 -15.41 -21.97 -21.97 -15.42 -15.42 -21.97 -21.97 -15.41 -15.41 -21.97 -21.97 -15.42 -15.42 -21.97 -21.97 -15.41 -17.23 -20.16 -21.97 -15.41 -15.42 -21.97 -21.97 -15.42 -13.6 -23.78 -21.96 -15.42 -15.42 -21.97 -21.97 -15.42 -15.42 -21.97 -21.97 -15.41 -15.41 -21.97 -21.97 -15.42 -15.42 -21.97 -21.97 -15.41 -15.41 -21.97 -23.79 -13.6 -15.42 -21.97 -21.97 -15.42 -15.41 -21.96 -20.14 -17.24 -15.42 -21.97 -21.97 -15.41 -15.42 -21.97 -21.96 -15.42 -15.42 -21.97 -21.97 -15.41 -15.42 -21.97 -21.97 -15.42 -15.41 -21.97 -21.97 -15.41 -17.23 -20.16 -21.97 -15.41 -15.42 -21.97 -21.97 -15.42 -13.6 -23.78 -21.97 -15.42 -15.41 -21.97 -21.97 -15.41 -15.42 -21.97 -21.97 -15.42 -15.42 -21.97 -21.96 -15.41 -15.42 -21.97 -21.97 -15.42 -15.42 -21.97 -23.78 -13.6 -15.41 -21.97 -21.97 -15.42 -15.42 -21.97 -20.16 -17.23 -15.41 -21.97 -21.97 -15.41 -15.42 -21.97 -21.97 -15.42 -15.41 -21.97 -21.97 -15.41 -15.42 -21.97 -21.97 -15.42 -15.42 -21.97 -21.96 -15.41 -17.23 -20.16 -21.97 -15.42 -15.42 -21.97 -21.97 -15.41 -13.6 -23.78 -21.97 -15.42 -15.42 -21.97 -21.97 -15.42 -15.41 -21.96 -21.97 -15.42 -15.42 -21.97 -21.97 -15.42 -15.41 -21.97 -21.97 -15.41 -15.42 -21.97 -23.78 -13.6 -15.42 -21.97 -21.97 -15.42 -15.41 -21.97 -20.16 -17.23 -15.41 -21.97 -21.97 -15.41 -15.42 -21.97 -21.97 -15.42 -15.41 -21.97 -21.97 -15.42 -15.42 -21.96 -21.97 -15.42 -15.41 -21.97 -21.97 -15.42 -17.24 -20.14 -21.96 -15.42 -15.42 -21.97 -21.97 -15.41 -13.6 -23.79 -21.97 -15.41 -15.41 -21.97 -21.97 -15.42 -15.42 -21.97 -21.97 -15.41 -15.42 -21.97 -21.97 -15.42 -15.41 -21.97 -21.97 -15.42 -15.42 -21.96 -23.78 -13.6 -15.42 -21.97 -21.97 -15.42 -15.41 -21.97 -20.16 -17.23 -15.41 -21.97 -21.97 -15.42 -15.42 -21.97 -21.97 -15.41 -15.41 -21.97 -21.97 -15.42 -20.52 -16.87 -18.69 -18.68 -7.57 -18.69 -27.99 -5.1 -17.24 -16.87 -20.14 -15.42 -18.68 -5.1 -18.69 -13.6 -18.69 -5.09 -18.69 -13.6 -18.69 -5.1 -24.81 -14.63 -31.26 -5.1 -37.38 -14.39 -56.08 -4.31 -149.54 0 -56.07 6.13 -56.08 13.6z"/>
   <path class="fil1" d="M1000.18 11193.08l319.37 -305.05c548.54,-548.54 4711.68,-4671.05 4828.6,-4852.22l-5147.97 5157.27z"/>
   <path class="fil1" d="M6265.39 5755.43c1.78,-3.83 4.79,-13.71 5.18,-11.54 1.37,7.47 22.33,-84.15 -4.15,-156.69l-1.03 168.23z"/>
   <path class="fil1" d="M691.8 12.57c-53.72,-17.35 -105.38,-16.11 -149.54,0l149.54 0z"/>
   <path class="fil1" d="M18.87 10839.75l-18.69 -112.16c0.47,18.05 -1.34,39.17 1.29,56.86 7.9,53.15 0.49,23.18 17.41,55.29z"/>
   <path class="fil1" d="M18.87 745.87l-18.69 -112.15c0.47,18.05 -1.34,39.16 1.29,56.85 7.9,53.16 0.49,23.19 17.41,55.29z"/>
   <polygon class="fil1" points="710.49,11311.36 635.72,11325.75 710.41,11324.24 "/>
   <path class="fil1" d="M467.49 11307.05l-37.39 -14.38c24.27,29.21 -14.74,26.44 37.39,14.38z"/>
   <path class="fil1" d="M280.57 11229.22l-37.39 -31.04c19.3,29.95 -18.6,10.74 37.39,31.04z"/>
   <path class="fil1" d="M953.49 11216.86l-18.69 13.61c25.92,12.9 18.69,15.87 18.69,-13.61z"/>
   <path class="fil1" d="M6241.61 5876.88c-22.22,-12.25 -16.87,-15.86 -16.87,9.39l16.87 -9.39z"/>
   <polygon class="fil1" points="916.11,88.37 897.42,74.77 "/>
   <polygon class="fil1" points="292.71,92.43 280.57,107.06 "/>
   <polygon class="fil1" points="954.94,108.89 972.19,125.76 954.94,108.89 934.8,93.46 "/>
   <polygon class="fil1" points="90.37,297.26 78.02,315.96 "/>
   <polygon class="fil1" points="72.92,338.28 59.32,353.34 "/>
   <polygon class="fil1" points="39.39,409.41 54.23,375.67 "/>
   <polygon class="fil1" points="20.69,465.49 34.29,428.1 "/>
   <polygon class="fil1" points="0.18,596.34 15.6,502.87 "/>
   <polygon class="fil1" points="34.29,801.96 20.69,764.57 "/>
   <polygon class="fil1" points="54.23,854.4 39.39,848.64 "/>
   <polygon class="fil1" points="71.67,895.42 59.32,876.73 "/>
   <polygon class="fil1" points="91.62,929.16 76.77,914.1 "/>
   <polygon class="fil1" points="165.13,1026.26 114.16,970.19 "/>
   <polygon class="fil1" points="1007.74,149.55 1026.44,168.23 1046.96,185.1 1068.93,200.53 1084.34,222.49 1106.3,237.9 1121.73,259.87 1143.69,275.29 1159.1,297.26 1179.26,314.5 1194.67,336.46 1216.64,351.89 1232.06,373.85 1255.84,387.45 1271.26,409.41 1293.23,424.83 1308.64,446.8 1330.61,462.22 1346.03,484.19 1368,499.6 1383.42,521.57 1405.39,536.99 1420.8,558.96 1442.77,574.37 1456.37,598.16 1478.33,613.57 1493.76,635.54 1515.71,650.96 1532.96,671.1 1554.93,686.53 1570.34,708.49 1592.31,723.92 1607.73,745.87 1629.69,761.29 1645.11,783.26 1667.07,798.68 1682.5,820.65 1704.46,836.06 1719.87,858.03 1740.03,875.27 1755.44,897.23 1777.41,912.65 1792.83,934.62 1816.61,948.22 1832.03,970.19 1854,985.6 1869.41,1007.57 1891.38,1022.99 1906.8,1044.96 1928.77,1060.38 1944.18,1082.34 1966.15,1097.76 1981.57,1119.73 2003.54,1135.15 2017.14,1158.93 2039.1,1174.34 2054.53,1196.31 2076.49,1211.73 2093.73,1231.88 2115.68,1247.3 2131.11,1269.26 2153.07,1284.69 2168.5,1306.65 2190.46,1322.06 2205.87,1344.03 2227.84,1359.45 2243.26,1381.42 2265.23,1396.83 2280.64,1418.8 2300.8,1436.03 2316.22,1458 2338.19,1473.42 2353.6,1495.39 2377.38,1508.99 2392.8,1530.96 2414.77,1546.38 2430.19,1568.35 2452.15,1583.76 2467.57,1605.73 2489.54,1621.15 2504.96,1643.12 2526.93,1658.53 2542.34,1680.5 2564.31,1695.92 2577.91,1719.7 2599.87,1735.12 2615.29,1757.09 2637.26,1772.5 2654.5,1792.65 2676.47,1808.06 2691.88,1830.03 2713.84,1845.45 2729.27,1867.42 2751.23,1882.83 2766.66,1904.8 2788.61,1920.22 2804.03,1942.19 2826,1957.6 2841.42,1979.57 2861.57,1996.82 2876.98,2018.77 2898.95,2034.19 2914.37,2056.16 2938.16,2069.76 2953.57,2091.73 2975.54,2107.14 2990.96,2129.11 3012.93,2144.53 3028.34,2166.5 3050.31,2181.91 3065.73,2203.88 3087.7,2219.3 3103.12,2241.27 3125.08,2256.69 3138.67,2280.47 3160.64,2295.89 3176.06,2317.86 3198.03,2333.27 3215.27,2353.42 3237.23,2368.83 3252.66,2390.8 3274.62,2406.22 3290.04,2428.19 3312,2443.6 3327.42,2465.57 3349.39,2480.99 3364.8,2502.96 3386.77,2518.37 3402.19,2540.34 3422.34,2557.58 3437.76,2579.55 3459.72,2594.96 3475.14,2616.93 3498.93,2630.53 3514.34,2652.5 3536.31,2667.92 3551.73,2689.88 3573.7,2705.3 3589.11,2727.27 3611.08,2742.69 3626.5,2764.65 3648.47,2780.07 3663.88,2802.04 3685.85,2817.46 3699.44,2841.24 3721.41,2856.66 3736.83,2878.63 3758.8,2894.04 3776.04,2914.19 3798,2929.6 3813.41,2951.57 3835.38,2966.99 3850.8,2988.96 3872.77,3004.38 3888.18,3026.34 3910.15,3041.76 3925.57,3063.73 3947.54,3079.15 3962.96,3101.12 3983.11,3118.34 3998.53,3140.31 4020.5,3155.73 4035.91,3177.7 4059.7,3191.3 4075.11,3213.27 4097.08,3228.69 4112.5,3250.66 4134.47,3266.07 4149.88,3288.04 4171.85,3303.46 4187.27,3325.43 4209.24,3340.85 4224.65,3362.8 4246.62,3378.23 4260.22,3402.01 4282.19,3417.43 4297.6,3439.4 4319.57,3454.81 4336.81,3474.96 4358.77,3490.38 4374.18,3512.35 4396.15,3527.76 4411.57,3549.73 4433.54,3565.15 4448.96,3587.12 4470.92,3602.53 4486.34,3624.5 4508.31,3639.92 4523.73,3661.89 4543.88,3679.12 4559.3,3701.08 4581.27,3716.5 4596.68,3738.47 4620.47,3752.07 4635.88,3774.04 4657.85,3789.46 4673.27,3811.43 4695.24,3826.84 4710.66,3848.81 4732.62,3864.23 4748.04,3886.2 4770.01,3901.61 4785.43,3923.57 4807.38,3939 4820.99,3962.78 4842.96,3978.2 4858.37,4000.17 4880.34,4015.59 4897.57,4035.73 4919.54,4051.15 4934.96,4073.12 4956.93,4088.53 4972.34,4110.5 4994.31,4125.92 5009.73,4147.89 5031.7,4163.3 5047.12,4185.27 5069.08,4200.69 5084.5,4222.66 5104.65,4239.89 5120.07,4261.86 5142.04,4277.28 5157.45,4299.24 5181.24,4312.84 5196.66,4334.81 5218.63,4350.23 5234.04,4372.2 5256.01,4387.61 5271.43,4409.57 5293.4,4425 5308.81,4446.96 5330.78,4462.38 5346.2,4484.34 5368.17,4499.77 5381.75,4523.56 5403.72,4538.97 5419.14,4560.94 5441.11,4576.36 5458.34,4596.5 5480.31,4611.91 5495.73,4633.88 5517.7,4649.3 5533.11,4671.27 5555.08,4686.69 5570.5,4708.65 5592.47,4724.07 5607.88,4746.04 5629.85,4761.46 5645.27,4783.43 5665.42,4800.66 5680.84,4822.63 5702.81,4838.04 5718.22,4860.01 5742.01,4873.61 5757.43,4895.58 5779.4,4911 5794.81,4932.97 5816.78,4948.38 5832.2,4970.34 5854.17,4985.77 5869.58,5007.73 5891.54,5023.16 5906.97,5045.11 5928.93,5060.53 5942.53,5084.33 5964.5,5099.74 5979.91,5121.7 6001.88,5137.13 6019.11,5157.27 6041.08,5172.69 6056.5,5194.66 6078.47,5210.07 6093.88,5232.04 6112.58,5250.73 6129.46,5271.24 6148.14,5288.12 6129.46,5271.24 6112.58,5250.73 6093.88,5232.04 6078.47,5210.07 6056.5,5194.66 6041.08,5172.69 6019.11,5157.27 6001.88,5137.13 5979.91,5121.7 5964.5,5099.74 5942.53,5084.33 5928.93,5060.53 5906.97,5045.11 5891.54,5023.16 5869.58,5007.73 5854.17,4985.77 5832.2,4970.34 5816.78,4948.38 5794.81,4932.97 5779.4,4911 5757.43,4895.58 5742.01,4873.61 5718.22,4860.01 5702.81,4838.04 5680.84,4822.63 5665.42,4800.66 5645.27,4783.43 5629.85,4761.46 5607.88,4746.04 5592.47,4724.07 5570.5,4708.65 5555.08,4686.69 5533.11,4671.27 5517.7,4649.3 5495.73,4633.88 5480.31,4611.91 5458.34,4596.5 5441.11,4576.36 5419.14,4560.94 5403.72,4538.97 5381.75,4523.56 5368.17,4499.77 5346.2,4484.34 5330.78,4462.38 5308.81,4446.96 5293.4,4425 5271.43,4409.57 5256.01,4387.61 5234.04,4372.2 5218.63,4350.23 5196.66,4334.81 5181.24,4312.84 5157.45,4299.24 5142.04,4277.28 5120.07,4261.86 5104.65,4239.89 5084.5,4222.66 5069.08,4200.69 5047.12,4185.27 5031.7,4163.3 5009.73,4147.89 4994.31,4125.92 4972.34,4110.5 4956.93,4088.53 4934.96,4073.12 4919.54,4051.15 4897.57,4035.73 4880.34,4015.59 4858.37,4000.17 4842.96,3978.2 4820.99,3962.78 4807.38,3939 4785.43,3923.57 4770.01,3901.61 4748.04,3886.2 4732.62,3864.23 4710.66,3848.81 4695.24,3826.84 4673.27,3811.43 4657.85,3789.46 4635.88,3774.04 4620.47,3752.07 4596.68,3738.47 4581.27,3716.5 4559.3,3701.08 4543.88,3679.12 4523.73,3661.89 4508.31,3639.92 4486.34,3624.5 4470.92,3602.53 4448.96,3587.12 4433.54,3565.15 4411.57,3549.73 4396.15,3527.76 4374.18,3512.35 4358.77,3490.38 4336.81,3474.96 4319.57,3454.81 4297.6,3439.4 4282.19,3417.43 4260.22,3402.01 4246.62,3378.23 4224.65,3362.8 4209.24,3340.85 4187.27,3325.43 4171.85,3303.46 4149.88,3288.04 4134.47,3266.07 4112.5,3250.66 4097.08,3228.69 4075.11,3213.27 4059.7,3191.3 4035.91,3177.7 4020.5,3155.73 3998.53,3140.31 3983.11,3118.34 3962.96,3101.12 3947.54,3079.15 3925.57,3063.73 3910.15,3041.76 3888.18,3026.34 3872.77,3004.38 3850.8,2988.96 3835.38,2966.99 3813.41,2951.57 3798,2929.6 3776.04,2914.19 3758.8,2894.04 3736.83,2878.63 3721.41,2856.66 3699.44,2841.24 3685.85,2817.46 3663.88,2802.04 3648.47,2780.07 3626.5,2764.65 3611.08,2742.69 3589.11,2727.27 3573.7,2705.3 3551.73,2689.88 3536.31,2667.92 3514.34,2652.5 3498.93,2630.53 3475.14,2616.93 3459.72,2594.96 3437.76,2579.55 3422.34,2557.58 3402.19,2540.34 3386.77,2518.37 3364.8,2502.96 3349.39,2480.99 3327.42,2465.57 3312,2443.6 3290.04,2428.19 3274.62,2406.22 3252.66,2390.8 3237.23,2368.83 3215.27,2353.42 3198.03,2333.27 3176.06,2317.86 3160.64,2295.89 3138.67,2280.47 3125.08,2256.69 3103.12,2241.27 3087.7,2219.3 3065.73,2203.88 3050.31,2181.91 3028.34,2166.5 3012.93,2144.53 2990.96,2129.11 2975.54,2107.14 2953.57,2091.73 2938.16,2069.76 2914.37,2056.16 2898.95,2034.19 2876.98,2018.77 2861.57,1996.82 2841.42,1979.57 2826,1957.6 2804.03,1942.19 2788.61,1920.22 2766.66,1904.8 2751.23,1882.83 2729.27,1867.42 2713.84,1845.45 2691.88,1830.03 2676.47,1808.06 2654.5,1792.65 2637.26,1772.5 2615.29,1757.09 2599.87,1735.12 2577.91,1719.7 2564.31,1695.92 2542.34,1680.5 2526.93,1658.53 2504.96,1643.12 2489.54,1621.15 2467.57,1605.73 2452.15,1583.76 2430.19,1568.35 2414.77,1546.38 2392.8,1530.96 2377.38,1508.99 2353.6,1495.39 2338.19,1473.42 2316.22,1458 2300.8,1436.03 2280.64,1418.8 2265.23,1396.83 2243.26,1381.42 2227.84,1359.45 2205.87,1344.03 2190.46,1322.06 2168.5,1306.65 2153.07,1284.69 2131.11,1269.26 2115.68,1247.3 2093.73,1231.88 2076.49,1211.73 2054.53,1196.31 2039.1,1174.34 2017.14,1158.93 2003.54,1135.15 1981.57,1119.73 1966.15,1097.76 1944.18,1082.34 1928.77,1060.38 1906.8,1044.96 1891.38,1022.99 1869.41,1007.57 1854,985.6 1832.03,970.19 1816.61,948.22 1792.83,934.62 1777.41,912.65 1755.44,897.23 1740.03,875.27 1719.87,858.03 1704.46,836.06 1682.5,820.65 1667.07,798.68 1645.11,783.26 1629.69,761.29 1607.73,745.87 1592.31,723.92 1570.34,708.49 1554.93,686.53 1532.96,671.1 1515.71,650.96 1493.76,635.54 1478.33,613.57 1456.37,598.16 1442.77,574.37 1420.8,558.96 1405.39,536.99 1383.42,521.57 1368,499.6 1346.03,484.19 1330.61,462.22 1308.64,446.8 1293.23,424.83 1271.26,409.41 1255.84,387.45 1232.06,373.85 1216.64,351.89 1194.67,336.46 1179.26,314.5 1159.1,297.26 1143.69,275.29 1121.73,259.87 1106.3,237.9 1084.34,222.49 1068.93,200.53 1046.96,185.1 1026.44,168.23 1007.74,149.55 1000.18,130.85 "/>
   <polygon class="fil1" points="6185.53,5353.49 6153.24,5306.81 "/>
   <polygon class="fil1" points="6205.25,5375.03 6190.62,5372.19 "/>
   <polygon class="fil1" points="6222.91,5418.97 6210.35,5400.27 "/>
   <polygon class="fil1" points="6240.37,5456.36 6228.01,5437.66 "/>
   <polygon class="fil1" points="6260.3,5531.12 6243.42,5493.74 "/>
   <polygon class="fil1" points="4732.98,5734.7 4787.24,5671.26 "/>
   <polygon class="fil1" points="6243.42,5848.89 6260.3,5792.82 "/>
   <polygon class="fil1" points="4561.11,5901.69 4708.63,5759.07 "/>
   <polygon class="fil1" points="6222.91,5904.97 6210.35,5923.66 "/>
   <polygon class="fil1" points="6186.56,5986.29 6171.94,5998.43 "/>
   <polygon class="fil1" points="4246.98,6220.72 4540.4,5927.3 "/>
   <polygon class="fil1" points="4222.63,6245.07 4209.6,6258.09 "/>
   <polygon class="fil1" points="4056.42,6406.38 4185.24,6282.45 "/>
   <polygon class="fil1" points="3910.51,6557.17 4034.45,6428.35 "/>
   <polygon class="fil1" points="3738.65,6724.15 3886.16,6581.52 "/>
   <polygon class="fil1" points="3574.05,6893.63 3699.24,6768.45 "/>
   <polygon class="fil1" points="204.34,164.96 183.83,181.83 166.96,202.35 146.45,219.22 127.76,237.9 114.16,259.87 127.76,237.9 146.45,219.22 166.96,202.35 183.83,181.83 204.34,164.96 223.03,146.26 236.63,129.82 223.03,146.26 "/>
   <polygon class="fil1" points="3088.06,7379.63 3362.77,7104.91 "/>
   <polygon class="fil1" points="3063.7,7404 3050.67,7417.01 "/>
   <polygon class="fil1" points="2916.19,7546.62 3026.31,7441.37 "/>
   <polygon class="fil1" points="2751.6,7716.1 2875.53,7587.28 "/>
   <polygon class="fil1" points="2564.67,7903.02 2727.23,7740.45 "/>
   <polygon class="fil1" points="2228.21,8239.49 2540.31,7927.38 "/>
   <polygon class="fil1" points="2075.03,8387.77 2203.85,8263.84 "/>
   <polygon class="fil1" points="1929.13,8538.56 2053.06,8409.74 "/>
   <polygon class="fil1" points="1757.26,8705.54 1904.77,8562.91 "/>
   <polygon class="fil1" points="1443.13,9024.56 1736.54,8731.15 "/>
   <polygon class="fil1" points="1418.78,9048.91 1405.74,9061.94 "/>
   <polygon class="fil1" points="1252.57,9210.24 1381.39,9086.3 "/>
   <polygon class="fil1" points="1069.28,9398.41 1230.6,9232.21 "/>
   <polygon class="fil1" points="934.8,9528.01 1044.93,9422.77 "/>
   <polygon class="fil1" points="770.2,9697.48 912.83,9549.97 "/>
   <polygon class="fil1" points="583.29,9884.41 745.85,9721.84 "/>
   <polygon class="fil1" points="411.42,10051.4 558.92,9908.77 "/>
   <polygon class="fil1" points="246.82,10220.87 389.45,10073.37 "/>
   <polygon class="fil1" points="131.81,10341.08 222.46,10245.22 "/>
   <polygon class="fil1" points="109.06,10372.44 92.62,10384.58 "/>
   <polygon class="fil1" points="486.19,18.69 430.1,32.29 "/>
   <polygon class="fil1" points="20.69,10559.37 34.29,10521.98 "/>
   <polygon class="fil1" points="0.18,10690.21 15.6,10596.75 "/>
   <polygon class="fil1" points="785.26,31.26 747.88,16.87 "/>
   <polygon class="fil1" points="37.57,10914.51 18.87,10858.44 "/>
   <polygon class="fil1" points="52.99,10951.9 39.39,10942.51 "/>
   <polygon class="fil1" points="71.67,10989.28 58.07,10970.59 "/>
   <polygon class="fil1" points="91.62,11023.04 76.77,11007.98 "/>
   <polygon class="fil1" points="146.45,11101.44 113.12,11070.61 "/>
   <polygon class="fil1" points="420.71,37.39 392.72,49.96 "/>
   <polygon class="fil1" points="3387.13,7080.56 3549.7,6917.98 "/>
   <polygon class="fil1" points="841.34,50.99 816.52,36.36 "/>
   <polygon class="fil1" points="317.96,11249.17 302.9,11234.32 "/>
   <polygon class="fil1" points="355.33,11267.86 336.64,11254.25 "/>
   <polygon class="fil1" points="404.86,11289.39 374.03,11272.95 "/>
   <polygon class="fil1" points="822.65,11286.54 893.78,11253.01 "/>
   <polygon class="fil1" points="367.48,55.05 340.29,70.92 "/>
   <polygon class="fil1" points="803.96,11291.63 766.57,11305.24 "/>
   <polygon class="fil1" points="598.33,11325.75 504.87,11311.36 "/>
   <polygon class="fil1" points="878.73,69.68 860.03,56.08 "/>
   <polygon class="fil1" points="72.92,10432.15 59.32,10447.21 "/>
  </g>
 </g>
</svg>
