<?xml version="1.0" encoding="UTF-8"?>
<!DOCTYPE svg PUBLIC "-//W3C//DTD SVG 1.1//EN" "http://www.w3.org/Graphics/SVG/1.1/DTD/svg11.dtd">
<!-- Creator: CorelDRAW 2019 (64-Bit) -->
<svg xmlns="http://www.w3.org/2000/svg" xml:space="preserve" width="35.3697mm" height="35.2897mm" version="1.1" style="shape-rendering:geometricPrecision; text-rendering:geometricPrecision; image-rendering:optimizeQuality; fill-rule:evenodd; clip-rule:evenodd"
viewBox="0 0 1267.34 1264.48"
 xmlns:xlink="http://www.w3.org/1999/xlink"
 xmlns:xodm="http://www.corel.com/coreldraw/odm/2003">
 <defs>
  <style type="text/css">
   <![CDATA[
    .str1 {stroke:#2B2A29;stroke-width:1.26;stroke-miterlimit:22.9256}
    .str0 {stroke:#2B2A29;stroke-width:7.17;stroke-miterlimit:22.9256}
    .fil0 {fill:none}
    .fil1 {fill:#7688A1}
    .fil2 {fill:#4F4F4F}
   ]]>
  </style>
 </defs>
 <g id="Слой_x0020_1">
  <metadata id="CorelCorpID_0Corel-Layer"/>
  <rect class="fil0 str0" x="3.58" y="3.58" width="1260.18" height="1257.31" rx="28.39" ry="28.67"/>
  <rect class="fil0 str0" x="360.64" y="351.13" width="554.13" height="536.6" rx="68.31" ry="71.66"/>
  <ellipse class="fil0 str1" transform="matrix(0.999997 0.00237567 -0.00237567 0.999997 639.094 608.293)" rx="99.54" ry="96.47"/>
  <path class="fil0 str1" d="M481.11 583.64c-1.05,7.46 -1.58,15.1 -1.55,22.85 0.41,86.45 71,156.22 157.65,155.85 86.65,-0.37 156.56,-70.75 156.15,-157.2 -0.04,-7.3 -0.57,-14.48 -1.57,-21.51"/>
  <path class="fil0 str1" d="M791.79 583.64l74.56 0 0 224c0,17.73 -14.51,32.25 -32.25,32.25l-388.41 0c-19.71,0 -35.83,-16.13 -35.83,-35.83l0 -220.41 71.25 0"/>
  <rect class="fil0 str1" x="738.82" y="407.09" width="125.14" height="122.3" rx="17.92" ry="17.92"/>
  <path class="fil1 str0" d="M738.82 425.01c0,-9.85 8.06,-17.92 17.92,-17.92l89.31 0c9.85,0 17.92,8.06 17.92,17.92l0 86.46c0,9.85 -8.06,17.92 -17.92,17.92l-89.31 0c-9.85,0 -17.92,-8.06 -17.92,-17.92l0 -86.46zm104.28 -73.88l-410.8 0c-39.41,0 -71.66,32.25 -71.66,71.66l0 393.27c0,39.41 32.25,71.66 71.66,71.66l410.8 0c39.41,0 71.66,-32.25 71.66,-71.66l0 -393.27c0,-39.41 -32.25,-71.66 -71.66,-71.66zm-51.32 232.51l74.56 0 0 224c0,17.73 -14.51,32.25 -32.25,32.25l-388.41 0c-19.71,0 -35.83,-16.13 -35.83,-35.83l0 -220.41 71.25 0c-1.05,7.46 -1.58,15.1 -1.55,22.85 0.41,86.45 71,156.22 157.65,155.85 86.65,-0.37 156.56,-70.75 156.15,-157.2 -0.04,-7.3 -0.57,-14.48 -1.57,-21.51zm-252.23 24.42c0.13,-53.28 44.8,-96.36 99.77,-96.23 54.98,0.13 99.44,43.43 99.31,96.71 -0.13,53.28 -44.8,96.36 -99.77,96.23 -54.98,-0.13 -99.44,-43.43 -99.31,-96.71z"/>
  <path class="fil2 str1" d="M738.82 425.01c0,-9.85 8.06,-17.92 17.92,-17.92l89.31 0c9.85,0 17.92,8.06 17.92,17.92l0 86.46c0,9.85 -8.06,17.92 -17.92,17.92l-89.31 0c-9.85,0 -17.92,-8.06 -17.92,-17.92l0 -86.46zm104.28 -73.88l-410.8 0c-39.41,0 -71.66,32.25 -71.66,71.66l0 393.27c0,39.41 32.25,71.66 71.66,71.66l410.8 0c39.41,0 71.66,-32.25 71.66,-71.66l0 -393.27c0,-39.41 -32.25,-71.66 -71.66,-71.66zm-303.55 256.92c0.13,-53.28 44.8,-96.36 99.77,-96.23 54.98,0.13 99.44,43.43 99.31,96.71 -0.13,53.28 -44.8,96.36 -99.77,96.23 -54.98,-0.13 -99.44,-43.43 -99.31,-96.71zm252.23 -24.42l74.56 0 0 224c0,17.73 -14.51,32.25 -32.25,32.25l-388.41 0c-19.71,0 -35.83,-16.13 -35.83,-35.83l0 -220.41 71.25 0c-1.05,7.46 -1.58,15.1 -1.55,22.85 0.41,86.45 71,156.22 157.65,155.85 86.65,-0.37 156.56,-70.75 156.15,-157.2 -0.04,-7.3 -0.57,-14.48 -1.57,-21.51z"/>
 </g>
</svg>
