<?xml version="1.0" encoding="UTF-8"?>
<!DOCTYPE svg PUBLIC "-//W3C//DTD SVG 1.1//EN" "http://www.w3.org/Graphics/SVG/1.1/DTD/svg11.dtd">
<!-- Creator: CorelDRAW 2019 (64-Bit) -->
<svg xmlns="http://www.w3.org/2000/svg" xml:space="preserve" width="15.5003mm" height="15.0111mm" version="1.1" style="shape-rendering:geometricPrecision; text-rendering:geometricPrecision; image-rendering:optimizeQuality; fill-rule:evenodd; clip-rule:evenodd"
viewBox="0 0 202.23 195.85"
 xmlns:xlink="http://www.w3.org/1999/xlink"
 xmlns:xodm="http://www.corel.com/coreldraw/odm/2003">
 <defs>
  <style type="text/css">
   <![CDATA[
    .str0 {stroke:#2B2A29;stroke-width:0.46;stroke-miterlimit:22.9256}
    .fil0 {fill:#2B2A29}
   ]]>
  </style>
 </defs>
 <g id="Слой_x0020_1">
  <metadata id="CorelCorpID_0Corel-Layer"/>
  <path class="fil0 str0" d="M137.93 27.13c0,-3.59 2.94,-6.52 6.52,-6.52l32.52 0c3.59,0 6.52,2.94 6.52,6.52l0 31.48c0,3.59 -2.94,6.52 -6.52,6.52l-32.52 0c-3.59,0 -6.52,-2.94 -6.52,-6.52l0 -31.48zm37.97 -26.9l-149.58 0c-14.35,0 -26.09,11.74 -26.09,26.09l0 143.2c0,14.35 11.74,26.09 26.09,26.09l149.58 0c14.35,0 26.09,-11.74 26.09,-26.09l0 -143.2c0,-14.35 -11.74,-26.09 -26.09,-26.09zm-110.53 93.55c0.05,-19.4 16.31,-35.09 36.33,-35.04 20.02,0.05 36.21,15.81 36.16,35.21 -0.05,19.4 -16.31,35.09 -36.33,35.04 -20.02,-0.05 -36.21,-15.81 -36.16,-35.21zm91.84 -8.89l27.15 0 0 81.56c0,6.46 -5.28,11.74 -11.74,11.74l-141.43 0c-7.18,0 -13.05,-5.87 -13.05,-13.05l0 -80.26 25.94 0c-0.38,2.72 -0.58,5.5 -0.56,8.32 0.15,31.48 25.85,56.88 57.4,56.75 31.55,-0.14 57.01,-25.76 56.86,-57.24 -0.01,-2.66 -0.21,-5.27 -0.57,-7.83z"/>
 </g>
</svg>
