<?xml version="1.0" encoding="UTF-8"?>
<!DOCTYPE svg PUBLIC "-//W3C//DTD SVG 1.1//EN" "http://www.w3.org/Graphics/SVG/1.1/DTD/svg11.dtd">
<!-- Creator: CorelDRAW 2019 (64-Bit) -->
<svg xmlns="http://www.w3.org/2000/svg" xml:space="preserve" width="297mm" height="420mm" version="1.1" style="shape-rendering:geometricPrecision; text-rendering:geometricPrecision; image-rendering:optimizeQuality; fill-rule:evenodd; clip-rule:evenodd"
viewBox="0 0 29700 42000"
 xmlns:xlink="http://www.w3.org/1999/xlink"
 xmlns:xodm="http://www.corel.com/coreldraw/odm/2003">
 <defs>
  <style type="text/css">
   <![CDATA[
    .fil0 {fill:#606060}
    .fil1 {fill:#88B693}
    .fil2 {fill:#ADADAA}
   ]]>
  </style>
 </defs>
 <g id="Слой_x0020_1">
  <metadata id="CorelCorpID_0Corel-Layer"/>
  <g id="_2216738025024">
   <path class="fil0" d="M14513.83 11479.39c319.26,-110.63 605.07,107.02 678.64,342.3 100.49,321.35 -110.8,608.38 -353.83,678.93 -679.24,197.16 -989.23,-791 -324.81,-1021.23zm-9490.85 -9334.7c1416.71,-236.39 2532.52,801.55 2713.76,1978.88 215.6,1400.59 -805.84,2498.72 -1971.27,2683.42 -1412.35,223.82 -2532.57,-817.91 -2700.01,-1990.2 -199.5,-1396.73 785.85,-2476.59 1957.52,-2672.1zm3954.43 4302.91l3390.37 5824.93 -1228.71 2039.65c-1759.94,2937.89 -4146.05,8286.22 -4805.43,11599.49 -188.25,945.92 -300.03,1941.95 -354.89,2926.7 -27.62,495.84 -159.21,2823.82 243.31,2970.02 139.76,-82.03 436.93,-643.53 558.89,-845.12l3715.89 -6147.16c715.64,-1177.96 1408.53,-2334.09 2125.53,-3509.91l1592.75 -2634.2c93.93,-162.14 178.66,-301.04 269.88,-450.87 47.39,-77.83 83.48,-136.16 130.42,-213.85l109.09 -173.18c35.26,-45.58 23.4,-29.34 45.39,-52.35 125.34,127.27 446.61,709.44 569.28,906.7 1317.96,2119.3 2605.32,4283.1 3927.41,6404.95 759.06,1218.24 1479.84,2439.25 2235.89,3650.89l1678.59 2735.7c303.83,516.75 458.09,586.41 523.11,-193.23 129.78,-1556.21 -233.53,-3825.45 -513.05,-5326.31 -882.34,-4737.7 -3062.49,-8344.12 -5254.57,-12499.61 -844.1,-1600.15 -1766.88,-3150.16 -2641.03,-4716.39 -390.86,-700.3 -247.42,-581.36 -757.76,-715.54l-2611.24 -706.08c-285.08,-71.74 -241.06,-141.98 -512.73,-614.71l-1634.87 -2811.51c-176.32,-309.63 -360.41,-610.64 -541.92,-929.14 -580.56,-1018.75 -977.91,-1714.71 -2228.88,-2217.5 -3413.49,-1371.95 -6684.95,1979.18 -5338.93,5244.83 1276.56,3097.1 5383.23,3319.68 7150.11,674.97l158.1 -222.17z"/>
   <path class="fil0" d="M23936.92 2146.12c1409.34,-245.89 2521.52,792.43 2713,1942.64 236.79,1422.35 -786.95,2521.57 -1947.81,2715.37 -1403.7,234.34 -2514.99,-783.77 -2710.15,-1936.45 -242.65,-1433.19 783.06,-2518.84 1944.96,-2721.56zm-8592.65 5849.79c212.69,392.32 2131.38,3862.66 2211.87,3932.39l3182.09 -5488.33c266.09,243.49 864.28,1604.62 2795.75,1987.26 2746.67,544.14 5199.37,-1815.64 4768.19,-4575.85 -546.98,-3501.49 -4990.13,-4537.09 -7112.91,-2001.18 -322.39,385.13 -649.78,1014.69 -920.44,1490.46l-2199.31 3780.59c-119.31,203.19 -128.12,162.24 -368.38,225.02l-2356.86 649.64z"/>
   <path class="fil1" d="M12364.14 30000.54c667.1,284.06 1089.6,569.05 1618.03,1003.96 837.01,688.89 1428.21,1331.02 2394.19,1895.46 720.02,420.72 1600.22,745.59 2521.99,952.96 278.46,62.65 1243.19,269.06 1496.04,203.96 417.3,-107.42 1074.26,-1810.74 1183.39,-2293.38 72.69,-321.49 45.68,-471.2 -137.04,-640.35l-989.85 -733.04c-3158.85,-2064.09 -4355.31,-1188.34 -6720.12,-1890.72 -204.09,-60.62 -455.76,-188.8 -631,-229.76l-735.63 1730.91z"/>
   <path class="fil0" d="M23127.96 32897.07l-15.45 6194.02c-265.95,84.08 -3578.39,21.73 -4146.97,21.73l-12438.02 -33.24c55.86,-1655.05 2.87,-3408.38 2.87,-5074.39 0,-254.54 47.62,-1060.23 -60.49,-1218.32 -159.65,-233.45 -651.68,-261.25 -660.03,277.46 -25.12,1620.66 1.06,3429.65 1.06,5073.88 0,1744.25 -164.69,1676.49 849.48,1676.46l16500.84 0.04c516.03,0.79 670.64,-30.36 668,-580.56 -3.18,-663.13 30.22,-6117.36 -11.1,-6321.3 -70.74,-349.19 -585.72,-402.97 -690.19,-15.78z"/>
   <path class="fil1" d="M14759.62 20462.51c120.78,135.67 2471.15,4039.25 2696.46,4406.18 111.83,182.11 334.72,600.67 459.3,730.96 259.26,271.15 629.49,-44.13 515.12,-388.87 -47.63,-143.58 -345.71,-592.51 -441.75,-749.16 -154.37,-251.81 -308.24,-489.77 -452.11,-737.37l-1800.28 -2959.26c-159.66,-259.24 -302.84,-496.13 -449.79,-739.86 -129.42,-214.67 -295.61,-632.4 -594.76,-564.38 -162.19,36.87 -199.73,151.59 -278.36,286.37 -492.49,844.13 -1073.97,1712.98 -1584.56,2579.63 -221.27,375.56 -1758.42,2807.02 -1795.8,2962.37 -88.87,369.36 326.94,621.19 562.45,312.3l2265.24 -3683.47c154.33,-246.28 293.52,-484.66 451.63,-738.21 143.04,-229.37 287.96,-496.99 447.21,-717.23z"/>
   <path class="fil1" d="M14527.08 36729.23c96.96,257.28 844.41,525.75 1200.24,639.48 343.92,109.93 471.44,160.65 700.85,-77 645.39,-668.59 1353.79,-2006.89 1587.14,-2973.41 -144.59,-126.86 -977.72,-498.22 -1218.69,-518.23 -298.48,-24.8 -412.94,133.92 -505.34,349.14 -274.04,638.28 -844.64,1756.37 -1318.52,2188.03l-445.68 391.99z"/>
   <path class="fil0" d="M12073.42 29124.25l1.79 -128.7c-167.82,-101.92 -405.96,64.02 -695.95,-147.07 -436.84,-317.99 -306.02,-778.91 -779.16,-1037.02 -134.45,-73.35 -685.83,-210.7 -672.68,23.86 9.21,164.11 428.96,53.86 653.7,244.9 163.09,138.63 210.55,353.08 329.74,578.74 148.79,281.7 707.31,769.42 1162.56,465.29z"/>
   <path class="fil0" d="M12473.03 28431.88c-99.61,-256.39 -232.61,43.78 -653.49,-180.56 -182.55,-97.3 -307.96,-286.78 -398.96,-509.05 -104.98,-256.44 -199.05,-404.77 -380.83,-527.76 -108.5,-73.42 -689.53,-268.04 -716.73,-30.87 -23.87,208.11 401.83,54.6 642.24,262.48 202.04,174.71 198.13,327.8 335.11,571.79 122.46,218.14 213.74,342.66 451.68,457.46 190.83,92.08 619.19,189.68 720.98,-43.49z"/>
   <path class="fil2" d="M6527.52 39079.58l12438.02 33.24c568.58,0 3881.02,62.35 4146.97,-21.73l15.45 -6194.02 -20.99 50.87c-65.63,228.88 25.92,-180.82 -14.02,55.41 -4.2,24.85 -5.17,66.12 -5.84,92.19 -1.52,58.69 1.94,129.12 2.23,189.49l-0.3 5794.97 -16561.52 -0.42z"/>
  </g>
 </g>
</svg>
