<?xml version="1.0" encoding="UTF-8"?>
<!DOCTYPE svg PUBLIC "-//W3C//DTD SVG 1.1//EN" "http://www.w3.org/Graphics/SVG/1.1/DTD/svg11.dtd">
<!-- Creator: CorelDRAW 2019 (64-Bit) -->
<svg xmlns="http://www.w3.org/2000/svg" xml:space="preserve" width="35.3697mm" height="35.2897mm" version="1.1" style="shape-rendering:geometricPrecision; text-rendering:geometricPrecision; image-rendering:optimizeQuality; fill-rule:evenodd; clip-rule:evenodd"
viewBox="0 0 1462.29 1458.99"
 xmlns:xlink="http://www.w3.org/1999/xlink"
 xmlns:xodm="http://www.corel.com/coreldraw/odm/2003">
 <defs>
  <style type="text/css">
   <![CDATA[
    .str0 {stroke:#2B2A29;stroke-width:8.27;stroke-miterlimit:22.9256}
    .fil0 {fill:none}
    .fil1 {fill:#4F4F4F}
   ]]>
  </style>
 </defs>
 <g id="Слой_x0020_1">
  <metadata id="CorelCorpID_0Corel-Layer"/>
  <rect class="fil0 str0" x="4.13" y="4.13" width="1454.03" height="1450.72" rx="32.76" ry="33.07"/>
  <path class="fil1 str0" d="M456.58 520.49c-23.61,-0.45 -65.18,-1 -86.06,-0.09 -20.87,0.91 -21.06,3.28 -21.24,9.11 -0.18,5.83 -0.37,15.13 0.55,25.43 0.91,10.3 2.92,21.6 5.66,32.45 2.73,10.85 6.19,21.24 11.75,34.27 5.56,13.04 13.22,28.72 22.24,45.13 9.03,16.4 19.41,33.55 31.09,52.6 11.67,19.05 24.61,40.02 39.29,60.62 14.68,20.6 31.08,40.84 49.41,60.8 18.32,19.96 38.56,39.66 59.71,56.61 21.15,16.95 43.2,31.17 62.35,40.74 19.14,9.58 35.36,14.49 52.78,17.78 17.41,3.28 36.01,4.92 49.68,5.74 13.67,0.82 22.42,0.82 29.08,0.27 6.65,-0.55 11.21,-1.64 15.5,-2.91 4.28,-1.28 8.3,-2.73 11.22,-4.37 2.91,-1.64 4.74,-3.46 6.29,-6.2 1.55,-2.73 2.82,-6.38 3.28,-10.48 0.45,-4.1 0.09,-8.66 -0.37,-13.95 -0.45,-5.28 -1,-11.3 -2.19,-24.61 -1.19,-13.31 -3.01,-33.91 -3.65,-46.13 -0.64,-12.21 -0.09,-16.04 1.73,-18.78 1.82,-2.73 4.92,-4.37 8.93,-5.47 4.01,-1.09 8.93,-1.64 13.95,0.18 5.01,1.82 10.12,6.02 17.14,12.03 7.02,6.02 15.95,13.86 24.34,21.42 8.38,7.57 16.22,14.85 23.52,22.51 7.29,7.66 14.04,15.68 20.24,22.79 6.2,7.11 11.85,13.31 17.23,19.51 5.38,6.2 10.48,12.4 14.49,17.23 4.01,4.83 6.92,8.3 9.57,11.12 2.64,2.83 5.01,5.01 7.66,6.66 2.64,1.64 5.56,2.73 10.21,3.28 4.65,0.55 11.03,0.55 34.64,0.55 23.61,0 64.45,0 85.32,-0.36 20.87,-0.36 21.78,-1.1 22.88,-2.46 1.1,-1.36 2.37,-3.37 3.19,-6.11 0.82,-2.73 1.18,-6.19 1.09,-8.93 -0.09,-2.73 -0.64,-4.74 -1.64,-8.38 -1,-3.65 -2.46,-8.93 -5.28,-14.68 -2.83,-5.74 -7.02,-11.94 -11.94,-18.23 -4.92,-6.29 -10.58,-12.67 -19.69,-22.7 -9.12,-10.03 -21.69,-23.7 -36.19,-38.56 -14.49,-14.86 -30.9,-30.9 -41.02,-41.2 -10.12,-10.3 -13.95,-14.86 -17.05,-19.51 -3.1,-4.65 -5.47,-9.38 -7.02,-14.67 -1.55,-5.29 -2.28,-11.12 -0.73,-16.95 1.55,-5.83 5.38,-11.67 15.5,-25.7 10.12,-14.04 26.52,-36.28 42.02,-61.8 15.5,-25.53 30.08,-54.33 40.11,-75.57 10.03,-21.24 15.5,-34.91 17.96,-43.57 2.46,-8.66 1.91,-12.31 -0,-15.4 -1.91,-3.1 -5.19,-5.66 -8.75,-7.2 -3.56,-1.55 -7.38,-2.1 -13.4,-2.46 -6.02,-0.36 -14.22,-0.55 -32,-0.64 -17.78,-0.09 -45.12,-0.09 -61.26,1 -16.14,1.09 -21.06,3.28 -25.7,7.2 -4.65,3.92 -9.03,9.57 -13.13,17.05 -4.1,7.47 -7.93,16.77 -13.4,29.26 -5.47,12.49 -12.58,28.17 -19.41,42.03 -6.84,13.85 -13.4,25.88 -20.24,36.82 -6.84,10.94 -13.95,20.78 -21.88,29.54 -7.93,8.75 -16.68,16.41 -24.88,23.43 -8.21,7.02 -15.86,13.4 -21.33,16.23 -5.47,2.82 -8.75,2.09 -10.3,-2.19 -1.55,-4.28 -1.37,-12.13 -1.1,-41.75 0.27,-29.63 0.64,-81.04 0,-109.57 -0.64,-28.53 -2.28,-34.18 -5.56,-38.28 -3.28,-4.1 -8.2,-6.66 -12.94,-8.11 -4.74,-1.46 -9.3,-1.83 -36.74,-2.1 -27.44,-0.27 -77.76,-0.45 -104.01,1.46 -26.25,1.91 -28.44,5.92 -29.62,10.58 -1.19,4.65 -1.37,9.93 0.18,15.31 1.55,5.38 4.83,10.84 9.94,16.31 5.11,5.47 12.03,10.94 16.68,16.59 4.65,5.65 7.02,11.49 7.84,19.24 0.82,7.75 0.09,17.41 0,43.94 -0.1,26.53 0.45,69.92 0.73,92.8 0.27,22.88 0.27,25.25 -2.01,26.98 -2.28,1.73 -6.84,2.82 -11.58,1.91 -4.74,-0.91 -9.66,-3.83 -19.51,-15.59 -9.85,-11.76 -24.62,-32.36 -36.92,-52.51 -12.31,-20.15 -22.15,-39.84 -32.81,-60.89 -10.67,-21.06 -22.16,-43.48 -28.44,-60.25 -6.29,-16.77 -7.38,-27.89 -10.03,-36.28 -2.65,-8.39 -6.84,-14.04 -11.76,-17.05 -4.92,-3.01 -10.58,-3.38 -34.18,-3.83z"/>
 </g>
</svg>
