<?xml version="1.0" encoding="UTF-8"?>
<!DOCTYPE svg PUBLIC "-//W3C//DTD SVG 1.1//EN" "http://www.w3.org/Graphics/SVG/1.1/DTD/svg11.dtd">
<!-- Creator: CorelDRAW 2019 (64-Bit) -->
<svg xmlns="http://www.w3.org/2000/svg" xml:space="preserve" width="18.5815mm" height="10.9982mm" version="1.1" style="shape-rendering:geometricPrecision; text-rendering:geometricPrecision; image-rendering:optimizeQuality; fill-rule:evenodd; clip-rule:evenodd"
viewBox="0 0 501.4 296.77"
 xmlns:xlink="http://www.w3.org/1999/xlink"
 xmlns:xodm="http://www.corel.com/coreldraw/odm/2003">
 <defs>
  <style type="text/css">
   <![CDATA[
    .str0 {stroke:#2B2A29;stroke-width:5.4;stroke-miterlimit:22.9256}
    .fil0 {fill:#2B2A29}
   ]]>
  </style>
 </defs>
 <g id="Слой_x0020_1">
  <metadata id="CorelCorpID_0Corel-Layer"/>
  <path class="fil0 str0" d="M72.82 3.08c-15.41,-0.3 -42.54,-0.65 -56.17,-0.06 -13.62,0.59 -13.74,2.14 -13.86,5.95 -0.12,3.81 -0.24,9.88 0.36,16.6 0.59,6.72 1.91,14.1 3.69,21.18 1.78,7.08 4.04,13.86 7.67,22.37 3.63,8.51 8.63,18.74 14.52,29.45 5.89,10.71 12.67,21.89 20.29,34.33 7.61,12.43 16.06,26.12 25.64,39.56 9.58,13.45 20.29,26.65 32.25,39.68 11.96,13.03 25.17,25.88 38.97,36.95 13.8,11.07 28.2,20.35 40.69,26.59 12.49,6.25 23.08,9.46 34.45,11.6 11.36,2.14 23.5,3.21 32.43,3.75 8.92,0.54 14.63,0.54 18.98,0.18 4.34,-0.36 7.32,-1.07 10.11,-1.9 2.8,-0.83 5.42,-1.78 7.32,-2.85 1.9,-1.07 3.09,-2.26 4.1,-4.05 1.01,-1.78 1.84,-4.16 2.14,-6.84 0.3,-2.68 0.06,-5.65 -0.24,-9.1 -0.3,-3.45 -0.66,-7.38 -1.43,-16.06 -0.77,-8.69 -1.96,-22.13 -2.38,-30.11 -0.42,-7.97 -0.06,-10.47 1.13,-12.26 1.19,-1.78 3.21,-2.85 5.83,-3.57 2.62,-0.71 5.83,-1.07 9.1,0.12 3.27,1.19 6.6,3.93 11.18,7.85 4.58,3.93 10.41,9.04 15.89,13.98 5.47,4.94 10.59,9.7 15.35,14.69 4.76,5 9.16,10.23 13.21,14.87 4.04,4.64 7.73,8.69 11.24,12.73 3.51,4.04 6.84,8.09 9.46,11.24 2.62,3.15 4.52,5.42 6.25,7.26 1.72,1.85 3.27,3.27 5,4.34 1.72,1.07 3.63,1.78 6.66,2.14 3.03,0.36 7.2,0.36 22.61,0.36 15.41,0 42.06,0 55.69,-0.24 13.62,-0.24 14.22,-0.72 14.93,-1.61 0.72,-0.89 1.55,-2.2 2.08,-3.99 0.53,-1.78 0.77,-4.04 0.71,-5.83 -0.06,-1.78 -0.42,-3.09 -1.07,-5.47 -0.66,-2.38 -1.61,-5.83 -3.45,-9.58 -1.85,-3.75 -4.58,-7.8 -7.8,-11.9 -3.21,-4.1 -6.9,-8.27 -12.85,-14.81 -5.95,-6.54 -14.16,-15.47 -23.62,-25.17 -9.46,-9.7 -20.17,-20.17 -26.77,-26.89 -6.61,-6.72 -9.1,-9.7 -11.13,-12.73 -2.02,-3.03 -3.57,-6.13 -4.58,-9.58 -1.01,-3.45 -1.49,-7.26 -0.48,-11.07 1.01,-3.81 3.51,-7.61 10.12,-16.78 6.6,-9.16 17.31,-23.68 27.43,-40.34 10.11,-16.66 19.63,-35.46 26.18,-49.32 6.54,-13.86 10.11,-22.79 11.72,-28.44 1.61,-5.65 1.25,-8.03 -0,-10.05 -1.25,-2.02 -3.39,-3.69 -5.71,-4.7 -2.32,-1.01 -4.82,-1.37 -8.75,-1.61 -3.93,-0.24 -9.28,-0.36 -20.88,-0.42 -11.6,-0.06 -29.45,-0.06 -39.98,0.66 -10.53,0.71 -13.74,2.14 -16.78,4.7 -3.04,2.56 -5.89,6.25 -8.57,11.13 -2.68,4.88 -5.18,10.95 -8.75,19.1 -3.57,8.15 -8.21,18.38 -12.67,27.43 -4.46,9.04 -8.75,16.89 -13.21,24.03 -4.46,7.14 -9.1,13.56 -14.28,19.28 -5.18,5.71 -10.89,10.71 -16.24,15.29 -5.36,4.58 -10.35,8.75 -13.92,10.59 -3.57,1.84 -5.71,1.37 -6.72,-1.43 -1.01,-2.8 -0.89,-7.91 -0.72,-27.25 0.18,-19.34 0.42,-52.89 0,-71.51 -0.42,-18.62 -1.49,-22.31 -3.63,-24.99 -2.14,-2.68 -5.35,-4.34 -8.45,-5.29 -3.1,-0.95 -6.07,-1.19 -23.98,-1.37 -17.91,-0.18 -50.75,-0.3 -67.89,0.95 -17.13,1.25 -18.56,3.87 -19.33,6.9 -0.77,3.03 -0.9,6.48 0.12,9.99 1.01,3.51 3.15,7.08 6.49,10.65 3.33,3.57 7.85,7.14 10.89,10.83 3.03,3.69 4.58,7.5 5.12,12.56 0.53,5.06 0.06,11.36 0,28.68 -0.06,17.31 0.3,45.63 0.47,60.57 0.18,14.93 0.18,16.48 -1.31,17.61 -1.49,1.13 -4.46,1.84 -7.56,1.25 -3.1,-0.59 -6.31,-2.5 -12.73,-10.17 -6.43,-7.67 -16.07,-21.12 -24.1,-34.27 -8.03,-13.15 -14.46,-26 -21.42,-39.74 -6.96,-13.74 -14.46,-28.38 -18.56,-39.33 -4.11,-10.95 -4.82,-18.21 -6.54,-23.68 -1.73,-5.47 -4.46,-9.16 -7.67,-11.13 -3.21,-1.96 -6.9,-2.2 -22.31,-2.5z"/>
 </g>
</svg>
